<?xml version="1.0" encoding="UTF-8" standalone="no"?>
<svg
   xmlns:dc="http://purl.org/dc/elements/1.1/"
   xmlns:cc="http://creativecommons.org/ns#"
   xmlns:rdf="http://www.w3.org/1999/02/22-rdf-syntax-ns#"
   xmlns:svg="http://www.w3.org/2000/svg"
   xmlns="http://www.w3.org/2000/svg"
   xmlns:sodipodi="http://sodipodi.sourceforge.net/DTD/sodipodi-0.dtd"
   xmlns:inkscape="http://www.inkscape.org/namespaces/inkscape"
   viewBox="0 0 100 99.999997"
   version="1.1"
   x="0px"
   y="0px"
   id="svg10"
   sodipodi:docname="add-task.svg"
   width="100"
   height="100"
   inkscape:version="1.0.1 (1921e68f95, 2020-11-30)">
  <metadata
     id="metadata16">
    <rdf:RDF>
      <cc:Work
         rdf:about="">
        <dc:format>image/svg+xml</dc:format>
        <dc:type
           rdf:resource="http://purl.org/dc/dcmitype/StillImage" />
        <dc:title></dc:title>
      </cc:Work>
    </rdf:RDF>
  </metadata>
  <defs
     id="defs14" />
  <sodipodi:namedview
     pagecolor="#ffffff"
     bordercolor="#666666"
     borderopacity="1"
     objecttolerance="10"
     gridtolerance="10"
     guidetolerance="10"
     inkscape:pageopacity="0"
     inkscape:pageshadow="2"
     inkscape:window-width="1600"
     inkscape:window-height="836"
     id="namedview12"
     showgrid="false"
     inkscape:zoom="1.4671073"
     inkscape:cx="-60.148288"
     inkscape:cy="-34.538524"
     inkscape:window-x="0"
     inkscape:window-y="0"
     inkscape:window-maximized="1"
     inkscape:current-layer="svg10"
     inkscape:document-rotation="0" />
  <g
     transform="matrix(13.740077,0,0,13.740077,6.3788048,-3987.1815)"
     id="g4"
     style="fill:#00ff00;fill-opacity:1;stroke-width:0.0727797">
    <path
       style="color:#000000;font-style:normal;font-variant:normal;font-weight:normal;font-stretch:normal;font-size:medium;line-height:normal;font-family:sans-serif;font-variant-ligatures:normal;font-variant-position:normal;font-variant-caps:normal;font-variant-numeric:normal;font-variant-alternates:normal;font-feature-settings:normal;text-indent:0;text-align:start;text-decoration:none;text-decoration-line:none;text-decoration-style:solid;text-decoration-color:#000000;letter-spacing:normal;word-spacing:normal;text-transform:none;writing-mode:lr-tb;direction:ltr;text-orientation:mixed;dominant-baseline:auto;baseline-shift:baseline;text-anchor:start;white-space:normal;shape-padding:0;clip-rule:nonzero;display:inline;overflow:visible;visibility:visible;opacity:1;isolation:auto;mix-blend-mode:normal;color-interpolation:sRGB;color-interpolation-filters:linearRGB;solid-color:#000000;solid-opacity:1;vector-effect:none;fill:#00ff00;fill-opacity:1;fill-rule:evenodd;stroke:none;stroke-width:0.14556;stroke-linecap:round;stroke-linejoin:round;stroke-miterlimit:4;stroke-dasharray:none;stroke-dashoffset:0;stroke-opacity:1;paint-order:stroke fill markers;color-rendering:auto;image-rendering:auto;shape-rendering:auto;text-rendering:auto;enable-background:accumulate"
       d="m 12.003906,0.99804688 c -6.0632818,0 -11.00780424,4.93673072 -11.00781225,11.00000012 -1.493e-5,6.063307 4.94451415,11.005859 11.00781225,11.005859 6.063299,0 10.998062,-4.942552 10.998047,-11.005859 -8e-6,-6.0632694 -4.934764,-11.00000012 -10.998047,-11.00000012 z m 0,2.00000002 c 4.982403,0 8.998041,4.0176 8.998047,9.0000001 1.3e-5,4.9824 -4.01563,9.005859 -8.998047,9.005859 -4.982416,0 -9.0078245,-4.023459 -9.0078122,-9.005859 6.5e-6,-4.9824001 4.0254095,-9.0000001 9.0078122,-9.0000001 z M 11.988281,6.984375 A 1.0001001,1.0001001 0 0 0 10.998047,8.0039062 V 11 H 8.0019531 a 1.0001001,1.0001001 0 0 0 -0.1035156,0 1.0023137,1.0023137 0 0 0 0.1035156,2.001953 h 2.9960939 v 2.996094 a 1.0009765,1.0009765 0 0 0 2.001953,0 v -2.996094 h 2.996094 a 1.0009765,1.0009765 0 0 0 0,-2.001953 H 13 V 8.0039062 A 1.0001001,1.0001001 0 0 0 11.988281,6.984375 Z"
       transform="matrix(0.26458334,0,0,0.26458334,0,290.64999)"
       id="path2" />
  </g>
  <text
     xml:space="preserve"
     style="font-size:42.6667px;line-height:1.25;font-family:Audiowide;-inkscape-font-specification:Audiowide"
     x="34.510406"
     y="36.000038"
     id="text865"><tspan
       sodipodi:role="line"
       id="tspan863"
       x="34.510406"
       y="36.000038">T</tspan></text>
</svg>
