<?xml version="1.0" encoding="UTF-8" standalone="no"?>
<svg
   xmlns:dc="http://purl.org/dc/elements/1.1/"
   xmlns:cc="http://creativecommons.org/ns#"
   xmlns:rdf="http://www.w3.org/1999/02/22-rdf-syntax-ns#"
   xmlns:svg="http://www.w3.org/2000/svg"
   xmlns="http://www.w3.org/2000/svg"
   xmlns:sodipodi="http://sodipodi.sourceforge.net/DTD/sodipodi-0.dtd"
   xmlns:inkscape="http://www.inkscape.org/namespaces/inkscape"
   version="1.1"
   x="0px"
   y="0px"
   viewBox="0 0 100 100"
   enable-background="new 0 0 1000 1000"
   xml:space="preserve"
   id="svg10"
   sodipodi:docname="61e852831fb1bbd9027b243414f37786.svg"
   width="100"
   height="100"
   inkscape:version="1.0.1 (1921e68f95, 2020-11-30)"><defs
   id="defs14" /><sodipodi:namedview
   pagecolor="#ffffff"
   bordercolor="#666666"
   borderopacity="1"
   objecttolerance="10"
   gridtolerance="10"
   guidetolerance="10"
   inkscape:pageopacity="0"
   inkscape:pageshadow="2"
   inkscape:window-width="1600"
   inkscape:window-height="836"
   id="namedview12"
   showgrid="false"
   inkscape:zoom="5.9623244"
   inkscape:cx="79.624805"
   inkscape:cy="58.268384"
   inkscape:window-x="0"
   inkscape:window-y="0"
   inkscape:window-maximized="1"
   inkscape:current-layer="svg10" />
<metadata
   id="metadata2"> Svg Vector Icons : http://www.onlinewebfonts.com/icon <rdf:RDF><cc:Work
     rdf:about=""><dc:format>image/svg+xml</dc:format><dc:type
       rdf:resource="http://purl.org/dc/dcmitype/StillImage" /><dc:title></dc:title></cc:Work></rdf:RDF></metadata>
<g
   id="g8"
   transform="matrix(0.09183673,0,0,0.09183673,4.081635,4.081635)"
   style="stroke-width:10.8889;fill:#0000ff"><path
     d="m 500,227.7 c -70.9,0 -128.6,57.7 -128.6,128.6 0,70.9 57.7,128.6 128.6,128.6 70.9,0 128.6,-57.7 128.6,-128.6 0,-70.9 -57.7,-128.6 -128.6,-128.6 z"
     id="path4"
     style="stroke-width:10.8889;fill:#0000ff" /><path
     d="M 500,10 C 229.4,10 10,229.4 10,500 10,770.6 229.4,990 500,990 770.6,990 990,770.6 990,500 990,229.4 770.6,10 500,10 Z m 227.7,746.6 c -13.4,0 -24.2,-10.8 -24.2,-24.2 0,-111 -89.4,-197.9 -203.5,-197.9 -114.1,0 -203.5,86.9 -203.5,197.9 0,13.4 -10.8,24.2 -24.2,24.2 -13.4,0 -24.2,-10.8 -24.2,-24.2 0,-67.1 26.3,-129.5 74.1,-175.7 23.5,-22.7 50.9,-40.3 80.8,-52.3 -10,-6.6 -19.5,-14.3 -28.1,-22.9 -33.4,-33.4 -51.8,-77.9 -51.8,-125.2 0,-47.3 18.4,-91.7 51.8,-125.2 33.4,-33.4 77.9,-51.8 125.2,-51.8 47.3,0 91.7,18.4 125.2,51.8 33.3,33.5 51.7,77.9 51.7,125.2 0,47.3 -18.4,91.7 -51.8,125.2 -8.7,8.7 -18.1,16.3 -28.2,22.9 29.9,12 57.4,29.6 80.8,52.3 47.8,46.2 74.1,108.6 74.1,175.7 0,13.3 -10.8,24.2 -24.2,24.2 z"
     id="path6"
     style="stroke-width:10.8889;fill:#0000ff" /></g>
</svg>
