<?xml version="1.0" encoding="UTF-8" standalone="no"?>
<svg
   xmlns:dc="http://purl.org/dc/elements/1.1/"
   xmlns:cc="http://creativecommons.org/ns#"
   xmlns:rdf="http://www.w3.org/1999/02/22-rdf-syntax-ns#"
   xmlns:svg="http://www.w3.org/2000/svg"
   xmlns="http://www.w3.org/2000/svg"
   xmlns:sodipodi="http://sodipodi.sourceforge.net/DTD/sodipodi-0.dtd"
   xmlns:inkscape="http://www.inkscape.org/namespaces/inkscape"
   viewBox="0 0 100 100"
   version="1.1"
   x="0px"
   y="0px"
   id="svg16"
   sodipodi:docname="noun_Delete_756918.svg"
   width="100"
   height="100"
   inkscape:version="1.0.1 (1921e68f95, 2020-11-30)">
  <metadata
     id="metadata22">
    <rdf:RDF>
      <cc:Work
         rdf:about="">
        <dc:format>image/svg+xml</dc:format>
        <dc:type
           rdf:resource="http://purl.org/dc/dcmitype/StillImage" />
        <dc:title>Delete 13.5</dc:title>
      </cc:Work>
    </rdf:RDF>
  </metadata>
  <defs
     id="defs20" />
  <sodipodi:namedview
     pagecolor="#ffffff"
     bordercolor="#666666"
     borderopacity="1"
     objecttolerance="10"
     gridtolerance="10"
     guidetolerance="10"
     inkscape:pageopacity="0"
     inkscape:pageshadow="2"
     inkscape:window-width="1600"
     inkscape:window-height="836"
     id="namedview18"
     showgrid="false"
     inkscape:zoom="4.216"
     inkscape:cx="50"
     inkscape:cy="62.5"
     inkscape:window-x="0"
     inkscape:window-y="0"
     inkscape:window-maximized="1"
     inkscape:current-layer="svg16" />
  <title
     id="title2">Delete 13.5</title>
  <desc
     id="desc4">Created with Sketch.</desc>
  <g
     stroke="none"
     stroke-width="0.377778"
     fill="none"
     fill-rule="evenodd"
     id="g10"
     transform="matrix(2.6470588,0,0,2.6470588,-82.35294,-82.35294)"
     style="fill:#ff0000">
    <g
       fill="#000000"
       id="g8"
       style="stroke-width:0.193274;fill:#ff0000">
      <path
         d="m 50,67 c 9.388841,0 17,-7.611159 17,-17 0,-9.388841 -7.611159,-17 -17,-17 -9.388841,0 -17,7.611159 -17,17 0,9.388841 7.611159,17 17,17 z m 3.535534,-17 4.232233,4.232233 c 0.976311,0.976311 0.976311,2.559223 0,3.535534 -0.976311,0.976311 -2.559223,0.976311 -3.535534,0 L 50,53.535534 45.767767,57.767767 c -0.976311,0.976311 -2.559223,0.976311 -3.535534,0 -0.976311,-0.976311 -0.976311,-2.559223 0,-3.535534 L 46.464466,50 42.232233,45.767767 c -0.976311,-0.976311 -0.976311,-2.559223 0,-3.535534 0.976311,-0.976311 2.559223,-0.976311 3.535534,0 L 50,46.464466 54.232233,42.232233 c 0.976311,-0.976311 2.559223,-0.976311 3.535534,0 0.976311,0.976311 0.976311,2.559223 0,3.535534 z"
         id="path6"
         style="stroke-width:0.377778;fill:#ff0000" />
    </g>
  </g>
</svg>
