<?xml version="1.0" encoding="UTF-8" standalone="no"?>
<svg
   xmlns:dc="http://purl.org/dc/elements/1.1/"
   xmlns:cc="http://creativecommons.org/ns#"
   xmlns:rdf="http://www.w3.org/1999/02/22-rdf-syntax-ns#"
   xmlns:svg="http://www.w3.org/2000/svg"
   xmlns="http://www.w3.org/2000/svg"
   xmlns:sodipodi="http://sodipodi.sourceforge.net/DTD/sodipodi-0.dtd"
   xmlns:inkscape="http://www.inkscape.org/namespaces/inkscape"
   version="1.1"
   x="0px"
   y="0px"
   viewBox="0 0 100 100"
   xml:space="preserve"
   id="svg973"
   sodipodi:docname="delete.svg"
   width="100"
   height="100"
   inkscape:version="1.0.1 (1921e68f95, 2020-11-30)"><metadata
     id="metadata979"><rdf:RDF><cc:Work
         rdf:about=""><dc:format>image/svg+xml</dc:format><dc:type
           rdf:resource="http://purl.org/dc/dcmitype/StillImage" /><dc:title /></cc:Work></rdf:RDF></metadata><defs
     id="defs977" /><sodipodi:namedview
     pagecolor="#ffffff"
     bordercolor="#666666"
     borderopacity="1"
     objecttolerance="10"
     gridtolerance="10"
     guidetolerance="10"
     inkscape:pageopacity="0"
     inkscape:pageshadow="2"
     inkscape:window-width="1600"
     inkscape:window-height="836"
     id="namedview975"
     showgrid="false"
     inkscape:zoom="3.29375"
     inkscape:cx="91.163607"
     inkscape:cy="38.502586"
     inkscape:window-x="0"
     inkscape:window-y="0"
     inkscape:window-maximized="1"
     inkscape:current-layer="svg973"
     inkscape:document-rotation="0" /><g
     id="g967"
     style="opacity:0.992;fill:#ff0000;fill-opacity:1;stroke-width:10.2397"
     transform="matrix(0.09765901,0,0,0.09765901,0.00346983,0.00401238)"><g
       id="g941"
       style="fill:#ff0000;fill-opacity:1;stroke-width:10.2397"><g
         id="g939"
         style="fill:#ff0000;fill-opacity:1;stroke-width:10.2397"><path
           d="m 747.1,278.7 c 0,17.9 0,35.8 0,53.6 0,43 0,86 0,129 0,51.6 0,103.2 0,154.9 0,44.1 0,88.3 0,132.4 0,20.5 0.1,41 0,61.4 0,3.4 -0.2,6.7 -0.7,10 0.6,-4.4 1.2,-8.9 1.8,-13.3 -0.9,5.8 -2.4,11.4 -4.6,16.8 1.7,-4 3.4,-8 5,-11.9 -2.4,5.7 -5.5,10.9 -9.2,15.8 2.6,-3.4 5.2,-6.7 7.8,-10.1 -3.5,4.5 -7.5,8.4 -11.9,12 3.4,-2.6 6.7,-5.2 10.1,-7.8 -4.9,3.8 -10.1,6.8 -15.8,9.3 4,-1.7 8,-3.4 11.9,-5 -5.4,2.2 -11,3.7 -16.8,4.6 4.4,-0.6 8.9,-1.2 13.3,-1.8 -6.5,0.8 -12.9,0.7 -19.4,0.7 -10.2,0 -20.4,0 -30.7,0 -34.8,0 -69.7,0 -104.5,0 -42.4,0 -84.8,0 -127.1,0 -36.5,0 -73.1,0 -109.6,0 -16.8,0 -33.6,0.1 -50.4,0 -3.3,0 -6.6,-0.2 -9.9,-0.7 4.4,0.6 8.9,1.2 13.3,1.8 -5.8,-0.9 -11.4,-2.4 -16.9,-4.6 4,1.7 8,3.4 11.9,5 -5.7,-2.4 -11,-5.5 -15.9,-9.3 3.4,2.6 6.7,5.2 10.1,7.8 -4.5,-3.5 -8.5,-7.5 -12.1,-12 2.6,3.4 5.2,6.7 7.8,10.1 -3.8,-4.9 -6.9,-10.2 -9.4,-15.8 1.7,4 3.4,8 5,11.9 -2.2,-5.4 -3.8,-11 -4.7,-16.8 0.6,4.4 1.2,8.9 1.8,13.3 -1,-7.2 -0.7,-14.6 -0.7,-21.9 0,-12.4 0,-24.7 0,-37.1 0,-42.2 0,-84.5 0,-126.7 0,-51.6 0,-103.2 0,-154.7 0,-44.8 0,-89.6 0,-134.5 0,-21.9 0.4,-43.8 0,-65.6 0,-0.3 0,-0.6 0,-0.9 -16.7,16.7 -33.3,33.3 -50,50 18.9,0 37.8,0 56.6,0 45.3,0 90.7,0 136,0 54.9,0 109.8,0 164.6,0 47.6,0 95.2,0 142.8,0 23,0 46.1,0.3 69.1,0 0.3,0 0.6,0 1,0 12.8,0 26.3,-5.6 35.4,-14.6 8.7,-8.7 15.2,-22.9 14.6,-35.4 -0.6,-12.9 -4.8,-26.3 -14.6,-35.4 -9.8,-9 -21.8,-14.6 -35.4,-14.6 -18.9,0 -37.8,0 -56.6,0 -45.3,0 -90.7,0 -136,0 -54.9,0 -109.8,0 -164.6,0 -47.6,0 -95.2,0 -142.8,0 -23,0 -46.1,-0.3 -69.1,0 -0.3,0 -0.6,0 -1,0 -27,0 -50,22.9 -50,50 0,10.5 0,21 0,31.4 0,26.9 0,53.7 0,80.6 0,36.5 0,73 0,109.6 0,39 0,78 0,116.9 0,34.7 0,69.4 0,104.1 0,23.5 0,47.1 0,70.6 0,5.4 0,10.9 0,16.3 0,21.6 5.1,42.9 16,61.7 21.1,36.5 61.3,59.1 103.3,59.5 3.5,0 6.9,0 10.4,0 23.1,0 46.2,0 69.3,0 36,0 72,0 108,0 38.5,0 77,0 115.6,0 30.6,0 61.3,0 91.9,0 12.8,0 25.7,0.3 38.5,0 41.7,-0.9 82.5,-23.9 102.2,-61.2 10,-18.8 14.9,-39 14.9,-60.3 0,-15.7 0,-31.4 0,-47 0,-30.2 0,-60.3 0,-90.5 0,-37.8 0,-75.5 0,-113.3 0,-38.5 0,-77 0,-115.5 0,-32.5 0,-64.9 0,-97.4 0,-19.3 0,-38.5 0,-57.8 0,-2.6 0,-5.2 0,-7.8 0,-12.8 -5.6,-26.3 -14.6,-35.4 -8.7,-8.7 -22.9,-15.2 -35.4,-14.6 -12.9,0.6 -26.3,4.8 -35.4,14.6 -8.6,10.1 -14.2,22.1 -14.2,35.6 z"
           id="path937"
           style="fill:#ff0000;fill-opacity:1;stroke-width:10.2397" /></g></g><g
       id="g947"
       style="fill:#ff0000;fill-opacity:1;stroke-width:10.2397"><g
         id="g945"
         style="fill:#ff0000;fill-opacity:1;stroke-width:10.2397"><path
           d="m 604.5,213.5 c 0,21.7 0,43.4 0,65.1 16.7,-16.7 33.3,-33.3 50,-50 -32.1,0 -64.2,0 -96.3,0 -51.2,0 -102.3,0 -153.5,0 -11.7,0 -23.5,0 -35.2,0 16.7,16.7 33.3,33.3 50,50 0,-12 0,-24 0,-36.1 0,-12.8 -1,-26.1 0.7,-38.8 -0.6,4.4 -1.2,8.9 -1.8,13.3 0.9,-5.8 2.4,-11.4 4.6,-16.8 -1.7,4 -3.4,8 -5,11.9 2.4,-5.7 5.5,-10.9 9.3,-15.8 -2.6,3.4 -5.2,6.7 -7.8,10.1 3.5,-4.5 7.5,-8.4 12,-12 -3.4,2.6 -6.7,5.2 -10.1,7.8 4.9,-3.8 10.2,-6.8 15.8,-9.3 -4,1.7 -8,3.4 -11.9,5 5.4,-2.2 11,-3.7 16.8,-4.6 -4.4,0.6 -8.9,1.2 -13.3,1.8 7.2,-0.9 14.6,-0.7 21.8,-0.7 12.2,0 24.3,0 36.5,0 27.6,0 55.2,0 82.8,0 8.5,0 17.1,-0.4 25.5,0.7 -4.4,-0.6 -8.9,-1.2 -13.3,-1.8 5.8,0.9 11.4,2.4 16.8,4.6 -4,-1.7 -8,-3.4 -11.9,-5 5.7,2.4 10.9,5.5 15.8,9.3 -3.4,-2.6 -6.7,-5.2 -10.1,-7.8 4.5,3.5 8.4,7.5 12,12 -2.6,-3.4 -5.2,-6.7 -7.8,-10.1 3.8,4.9 6.8,10.2 9.3,15.8 -1.7,-4 -3.4,-8 -5,-11.9 2.2,5.4 3.7,11 4.6,16.8 -0.6,-4.4 -1.2,-8.9 -1.8,-13.3 0.3,3.4 0.5,6.6 0.5,9.8 0.1,12.9 5.5,26.2 14.6,35.4 8.7,8.7 22.9,15.2 35.4,14.6 12.9,-0.6 26.3,-4.8 35.4,-14.6 8.9,-9.7 14.8,-21.9 14.6,-35.4 -0.3,-32.9 -14.2,-66.9 -39.7,-88.5 -14.3,-12.1 -29.9,-21.5 -48.3,-26.4 -10.3,-2.7 -21.2,-4 -31.8,-4.1 -22.8,-0.1 -45.5,0 -68.3,0 -25,0 -50,0 -75.1,0 -22.1,0 -43.9,5 -63.1,16.2 -27.5,16.1 -50.2,45.2 -56,77 -3.3,17.9 -2.9,35.2 -2.9,53.3 0,12.5 0,25 0,37.5 0,27 22.9,50 50,50 32.1,0 64.2,0 96.3,0 51.2,0 102.3,0 153.5,0 11.7,0 23.5,0 35.2,0 27,0 50,-22.9 50,-50 0,-21.7 0,-43.4 0,-65.1 0,-12.8 -5.6,-26.3 -14.6,-35.4 -8.7,-8.7 -22.9,-15.2 -35.4,-14.6 -12.9,0.6 -26.3,4.8 -35.4,14.6 -8.7,9.9 -14.4,22 -14.4,35.5 z"
           id="path943"
           style="fill:#ff0000;fill-opacity:1;stroke-width:10.2397" /></g></g><g
       id="g953"
       style="fill:#ff0000;fill-opacity:1;stroke-width:10.2397"><g
         id="g951"
         style="fill:#ff0000;fill-opacity:1;stroke-width:10.2397"><path
           d="m 871.5,228.7 c -6.4,0 -12.9,0 -19.3,0 -17.4,0 -34.8,0 -52.1,0 -25.8,0 -51.6,0 -77.5,0 -31.5,0 -63,0 -94.6,0 -34.4,0 -68.7,0 -103.1,0 -34.8,0 -69.7,0 -104.5,0 -32.5,0 -65,0 -97.5,0 -27.3,0 -54.7,0 -82,0 -19.8,0 -39.5,0 -59.3,0 -9.3,0 -18.7,-0.1 -28,0 -0.4,0 -0.8,0 -1.2,0 -12.8,0 -26.3,5.6 -35.4,14.6 -8.7,8.7 -15.2,22.9 -14.6,35.4 0.6,12.9 4.8,26.3 14.6,35.4 9.8,9 21.8,14.6 35.4,14.6 6.4,0 12.9,0 19.3,0 17.4,0 34.8,0 52.1,0 25.8,0 51.6,0 77.5,0 31.5,0 63,0 94.6,0 34.4,0 68.7,0 103.1,0 34.8,0 69.7,0 104.5,0 32.5,0 65,0 97.5,0 27.3,0 54.7,0 82,0 19.8,0 39.5,0 59.3,0 9.3,0 18.7,0.1 28,0 0.4,0 0.8,0 1.2,0 12.8,0 26.3,-5.6 35.4,-14.6 8.7,-8.7 15.2,-22.9 14.6,-35.4 -0.6,-12.9 -4.8,-26.3 -14.6,-35.4 -9.8,-8.9 -21.9,-14.6 -35.4,-14.6 z"
           id="path949"
           style="fill:#ff0000;fill-opacity:1;stroke-width:10.2397" /></g></g><g
       id="g959"
       style="fill:#ff0000;fill-opacity:1;stroke-width:10.2397"><g
         id="g957"
         style="fill:#ff0000;fill-opacity:1;stroke-width:10.2397"><path
           d="m 365.4,458.8 c 0,27.1 0,54.3 0,81.4 0,43.2 0,86.4 0,129.6 0,9.8 0,19.7 0,29.5 0,12.8 5.6,26.3 14.6,35.4 8.7,8.7 22.9,15.2 35.4,14.6 12.9,-0.6 26.3,-4.8 35.4,-14.6 9,-9.8 14.6,-21.8 14.6,-35.4 0,-27.1 0,-54.3 0,-81.4 0,-43.2 0,-86.4 0,-129.6 0,-9.8 0,-19.7 0,-29.5 0,-12.8 -5.6,-26.3 -14.6,-35.4 -8.7,-8.7 -22.9,-15.2 -35.4,-14.6 -12.9,0.6 -26.3,4.8 -35.4,14.6 -8.9,9.8 -14.6,21.8 -14.6,35.4 z"
           id="path955"
           style="fill:#ff0000;fill-opacity:1;stroke-width:10.2397" /></g></g><g
       id="g965"
       style="fill:#ff0000;fill-opacity:1;stroke-width:10.2397"><g
         id="g963"
         style="fill:#ff0000;fill-opacity:1;stroke-width:10.2397"><path
           d="m 561,458.8 c 0,27.1 0,54.3 0,81.4 0,43.2 0,86.4 0,129.6 0,9.8 0,19.7 0,29.5 0,12.8 5.6,26.3 14.6,35.4 8.7,8.7 22.9,15.2 35.4,14.6 12.9,-0.6 26.3,-4.8 35.4,-14.6 9,-9.8 14.6,-21.8 14.6,-35.4 0,-27.1 0,-54.3 0,-81.4 0,-43.2 0,-86.4 0,-129.6 0,-9.8 0,-19.7 0,-29.5 0,-12.8 -5.6,-26.3 -14.6,-35.4 -8.7,-8.7 -22.9,-15.2 -35.4,-14.6 -12.9,0.6 -26.3,4.8 -35.4,14.6 -9,9.8 -14.6,21.8 -14.6,35.4 z"
           id="path961"
           style="fill:#ff0000;fill-opacity:1;stroke-width:10.2397" /></g></g></g></svg>
