<?xml version="1.0" encoding="UTF-8" standalone="no"?>
<svg
   xmlns:dc="http://purl.org/dc/elements/1.1/"
   xmlns:cc="http://creativecommons.org/ns#"
   xmlns:rdf="http://www.w3.org/1999/02/22-rdf-syntax-ns#"
   xmlns:svg="http://www.w3.org/2000/svg"
   xmlns="http://www.w3.org/2000/svg"
   xmlns:sodipodi="http://sodipodi.sourceforge.net/DTD/sodipodi-0.dtd"
   xmlns:inkscape="http://www.inkscape.org/namespaces/inkscape"
   data-name="Layer 1"
   viewBox="0 0 100 100"
   x="0px"
   y="0px"
   version="1.1"
   id="svg1625"
   sodipodi:docname="noun_edit_3556018.svg"
   width="100"
   height="100"
   inkscape:version="1.0.1 (1921e68f95, 2020-11-30)">
  <metadata
     id="metadata1631">
    <rdf:RDF>
      <cc:Work
         rdf:about="">
        <dc:format>image/svg+xml</dc:format>
        <dc:type
           rdf:resource="http://purl.org/dc/dcmitype/StillImage" />
        <dc:title>Artboard 15</dc:title>
      </cc:Work>
    </rdf:RDF>
  </metadata>
  <defs
     id="defs1629" />
  <sodipodi:namedview
     pagecolor="#ffffff"
     bordercolor="#666666"
     borderopacity="1"
     objecttolerance="10"
     gridtolerance="10"
     guidetolerance="10"
     inkscape:pageopacity="0"
     inkscape:pageshadow="2"
     inkscape:window-width="1600"
     inkscape:window-height="836"
     id="namedview1627"
     showgrid="false"
     inkscape:zoom="4.216"
     inkscape:cx="50"
     inkscape:cy="62.5"
     inkscape:window-x="0"
     inkscape:window-y="0"
     inkscape:window-maximized="1"
     inkscape:current-layer="svg1625" />
  <title
     id="title1613">Artboard 15</title>
  <g
     id="g1619"
     style="fill:#555fff;fill-opacity:1;stroke-width:0.799831"
     transform="matrix(1.2502638,0,0,1.2502638,-12.504748,-12.513161)">
    <path
       d="m 69.51,18 a 12.4,12.4 0 0 0 -8.83,3.66 L 39.86,42.48 A 19.87,19.87 0 0 0 34,56.63 V 66 h 9.37 A 19.87,19.87 0 0 0 57.51,60.14 L 78.34,39.31 A 12.49,12.49 0 0 0 69.51,18 Z M 72.68,33.66 51.86,54.48 A 11.92,11.92 0 0 1 43.37,58 H 42 v -1.37 a 11.92,11.92 0 0 1 3.51,-8.49 L 66.34,27.31 a 4.49,4.49 0 1 1 6.34,6.34 z"
       id="path1615"
       style="fill:#555fff;fill-opacity:1;stroke-width:0.799831" />
    <path
       d="M 30,82 H 66 A 12,12 0 0 0 78,70 V 54 h -8 v 16 a 4,4 0 0 1 -4,4 H 30 A 4,4 0 0 1 26,70 V 34 a 4,4 0 0 1 4,-4 H 46 V 22 H 30 A 12,12 0 0 0 18,34 v 36 a 12,12 0 0 0 12,12 z"
       id="path1617"
       style="fill:#555fff;fill-opacity:1;stroke-width:0.799831" />
  </g>
</svg>
