<?xml version="1.0" encoding="UTF-8" standalone="no"?>
<svg
   xmlns:dc="http://purl.org/dc/elements/1.1/"
   xmlns:cc="http://creativecommons.org/ns#"
   xmlns:rdf="http://www.w3.org/1999/02/22-rdf-syntax-ns#"
   xmlns:svg="http://www.w3.org/2000/svg"
   xmlns="http://www.w3.org/2000/svg"
   xmlns:sodipodi="http://sodipodi.sourceforge.net/DTD/sodipodi-0.dtd"
   xmlns:inkscape="http://www.inkscape.org/namespaces/inkscape"
   viewBox="0 0 32 40"
   x="0px"
   y="0px"
   version="1.1"
   id="svg12"
   sodipodi:docname="log-out.svg"
   inkscape:version="1.0.1 (1921e68f95, 2020-11-30)">
  <metadata
     id="metadata18">
    <rdf:RDF>
      <cc:Work
         rdf:about="">
        <dc:format>image/svg+xml</dc:format>
        <dc:type
           rdf:resource="http://purl.org/dc/dcmitype/StillImage" />
        <dc:title>55- login</dc:title>
      </cc:Work>
    </rdf:RDF>
  </metadata>
  <defs
     id="defs16" />
  <sodipodi:namedview
     pagecolor="#ffffff"
     bordercolor="#666666"
     borderopacity="1"
     objecttolerance="10"
     gridtolerance="10"
     guidetolerance="10"
     inkscape:pageopacity="0"
     inkscape:pageshadow="2"
     inkscape:window-width="1600"
     inkscape:window-height="836"
     id="namedview14"
     showgrid="false"
     inkscape:zoom="13.175"
     inkscape:cx="16"
     inkscape:cy="38.340608"
     inkscape:window-x="0"
     inkscape:window-y="0"
     inkscape:window-maximized="1"
     inkscape:current-layer="svg12"
     inkscape:document-rotation="0" />
  <title
     id="title2">55- login</title>
  <path
     d="m 18.000793,17 h -6 v -4 a -1,1 0 0 0 -1.71,-0.71 l -7.0000003,7 a -1,1 0 0 0 0,1.41 l 7.0000003,7 a -1,1 0 0 0 1.71,-0.7 v -4 h 6 a -3,3 0 0 0 0,-6 z m 0,4 h -7 a -1,1 0 0 0 -1,1 v 2.59 L 5.4107927,20 10.000793,15.41 V 18 a -1,1 0 0 0 1,1 h 7 a -1,1 0 0 1 0,2 z"
     id="path4"
     style="fill:#ffff00" />
  <path
     d="m 29,32 a 3,3 0 0 1 -3,3 H 10 A 3,3 0 0 1 7,32 v -2 a 1,1 0 0 1 2,0 v 2 a 1,1 0 0 0 1,1 h 16 a 1,1 0 0 0 1,-1 V 8 A 1,1 0 0 0 26,7 H 10 A 1,1 0 0 0 9,8 v 2 A 1,1 0 0 1 7,10 V 8 a 3,3 0 0 1 3,-3 h 16 a 3,3 0 0 1 3,3 z"
     id="path6"
     style="fill:#0000ff" />
</svg>
