<svg xmlns="http://www.w3.org/2000/svg" xmlns:xlink="http://www.w3.org/1999/xlink" version="1.1" x="0px" y="0px" viewBox="0 0 100 125" enable-background="new 0 0 100 100" xml:space="preserve"><g><path d="M5,26.792h13.957c0.92,4.252,4.708,7.448,9.231,7.448s8.311-3.196,9.231-7.448H95c1.104,0,2-0.896,2-2s-0.896-2-2-2H37.418   c-0.92-4.252-4.708-7.449-9.231-7.449s-8.311,3.197-9.231,7.449H5c-1.104,0-2,0.896-2,2S3.896,26.792,5,26.792z M28.188,19.343   c3.004,0,5.449,2.444,5.449,5.449c0,3.004-2.444,5.448-5.449,5.448c-2.934,0-5.327-2.332-5.438-5.239   c0.007-0.07,0.021-0.138,0.021-0.209s-0.014-0.14-0.021-0.209C22.861,21.675,25.254,19.343,28.188,19.343z"/><path d="M5,50.458h57.582c0.92,4.252,4.708,7.449,9.231,7.449s8.311-3.197,9.231-7.449H95c1.104,0,2-0.896,2-2s-0.896-2-2-2H81.043   c-0.92-4.252-4.708-7.448-9.231-7.448s-8.311,3.196-9.231,7.448H5c-1.104,0-2,0.896-2,2S3.896,50.458,5,50.458z M71.812,43.01   c2.934,0,5.327,2.332,5.438,5.239c-0.007,0.07-0.021,0.138-0.021,0.209s0.014,0.14,0.021,0.209c-0.111,2.907-2.504,5.24-5.438,5.24   c-3.004,0-5.449-2.444-5.449-5.449C66.364,45.454,68.808,43.01,71.812,43.01z"/><path d="M5,77.208h13.957c0.92,4.252,4.708,7.449,9.231,7.449s8.311-3.197,9.231-7.449H95c1.104,0,2-0.896,2-2s-0.896-2-2-2H37.418   c-0.92-4.252-4.708-7.448-9.231-7.448s-8.311,3.196-9.231,7.448H5c-1.104,0-2,0.896-2,2S3.896,77.208,5,77.208z M28.188,69.76   c3.004,0,5.449,2.444,5.449,5.448c0,3.005-2.444,5.449-5.449,5.449c-2.934,0-5.327-2.333-5.438-5.24   c0.007-0.07,0.021-0.138,0.021-0.209s-0.014-0.14-0.021-0.209C22.861,72.092,25.254,69.76,28.188,69.76z"/></g><text x="0" y="115" fill="#000000" font-size="5px" font-weight="bold" font-family="'Helvetica Neue', Helvetica, Arial-Unicode, Arial, Sans-serif">Created by Eris Natansa</text><text x="0" y="120" fill="#000000" font-size="5px" font-weight="bold" font-family="'Helvetica Neue', Helvetica, Arial-Unicode, Arial, Sans-serif">from the Noun Project</text></svg>