<?xml version="1.0" encoding="UTF-8" standalone="no"?>
<svg
   xmlns:dc="http://purl.org/dc/elements/1.1/"
   xmlns:cc="http://creativecommons.org/ns#"
   xmlns:rdf="http://www.w3.org/1999/02/22-rdf-syntax-ns#"
   xmlns:svg="http://www.w3.org/2000/svg"
   xmlns="http://www.w3.org/2000/svg"
   xmlns:sodipodi="http://sodipodi.sourceforge.net/DTD/sodipodi-0.dtd"
   xmlns:inkscape="http://www.inkscape.org/namespaces/inkscape"
   version="1.1"
   x="0px"
   y="0px"
   viewBox="0 0 100 100"
   enable-background="new 0 0 100 100"
   xml:space="preserve"
   id="svg1012"
   sodipodi:docname="menu-bars.svg"
   width="100"
   height="100"
   inkscape:version="1.0.1 (1921e68f95, 2020-11-30)"><metadata
     id="metadata1018"><rdf:RDF><cc:Work
         rdf:about=""><dc:format>image/svg+xml</dc:format><dc:type
           rdf:resource="http://purl.org/dc/dcmitype/StillImage" /><dc:title></dc:title></cc:Work></rdf:RDF></metadata><defs
     id="defs1016" /><sodipodi:namedview
     pagecolor="#ffffff"
     bordercolor="#666666"
     borderopacity="1"
     objecttolerance="10"
     gridtolerance="10"
     guidetolerance="10"
     inkscape:pageopacity="0"
     inkscape:pageshadow="2"
     inkscape:window-width="1600"
     inkscape:window-height="836"
     id="namedview1014"
     showgrid="false"
     inkscape:zoom="4.216"
     inkscape:cx="78.462998"
     inkscape:cy="62.5"
     inkscape:window-x="0"
     inkscape:window-y="0"
     inkscape:window-maximized="1"
     inkscape:current-layer="svg1012" /><g
     id="g1601"
     style="fill:#5555ff;fill-opacity:1;opacity:1"><path
       d="m 5,26.792 h 13.957 c 0.92,4.252 4.708,7.448 9.231,7.448 4.523,0 8.311,-3.196 9.231,-7.448 H 95 c 1.104,0 2,-0.896 2,-2 0,-1.104 -0.896,-2 -2,-2 H 37.418 c -0.92,-4.252 -4.708,-7.449 -9.231,-7.449 -4.523,0 -8.311,3.197 -9.231,7.449 H 5 c -1.104,0 -2,0.896 -2,2 0,1.104 0.896,2 2,2 z m 23.188,-7.449 c 3.004,0 5.449,2.444 5.449,5.449 0,3.004 -2.444,5.448 -5.449,5.448 -2.934,0 -5.327,-2.332 -5.438,-5.239 0.007,-0.07 0.021,-0.138 0.021,-0.209 0,-0.071 -0.014,-0.14 -0.021,-0.209 0.111,-2.908 2.504,-5.24 5.438,-5.24 z"
       id="path1000"
       style="opacity:1;fill:#5555ff;fill-opacity:1" /><path
       d="m 5,50.458 h 57.582 c 0.92,4.252 4.708,7.449 9.231,7.449 4.523,0 8.311,-3.197 9.231,-7.449 H 95 c 1.104,0 2,-0.896 2,-2 0,-1.104 -0.896,-2 -2,-2 H 81.043 c -0.92,-4.252 -4.708,-7.448 -9.231,-7.448 -4.523,0 -8.311,3.196 -9.231,7.448 H 5 c -1.104,0 -2,0.896 -2,2 0,1.104 0.896,2 2,2 z M 71.812,43.01 c 2.934,0 5.327,2.332 5.438,5.239 -0.007,0.07 -0.021,0.138 -0.021,0.209 0,0.071 0.014,0.14 0.021,0.209 -0.111,2.907 -2.504,5.24 -5.438,5.24 -3.004,0 -5.449,-2.444 -5.449,-5.449 0.001,-3.004 2.445,-5.448 5.449,-5.448 z"
       id="path1002"
       style="opacity:1;fill:#5555ff;fill-opacity:1" /><path
       d="m 5,77.208 h 13.957 c 0.92,4.252 4.708,7.449 9.231,7.449 4.523,0 8.311,-3.197 9.231,-7.449 H 95 c 1.104,0 2,-0.896 2,-2 0,-1.104 -0.896,-2 -2,-2 H 37.418 c -0.92,-4.252 -4.708,-7.448 -9.231,-7.448 -4.523,0 -8.311,3.196 -9.231,7.448 H 5 c -1.104,0 -2,0.896 -2,2 0,1.104 0.896,2 2,2 z M 28.188,69.76 c 3.004,0 5.449,2.444 5.449,5.448 0,3.005 -2.444,5.449 -5.449,5.449 -2.934,0 -5.327,-2.333 -5.438,-5.24 0.007,-0.07 0.021,-0.138 0.021,-0.209 0,-0.071 -0.014,-0.14 -0.021,-0.209 0.111,-2.907 2.504,-5.239 5.438,-5.239 z"
       id="path1004"
       style="opacity:1;fill:#5555ff;fill-opacity:1" /></g></svg>
