<?xml version="1.0" encoding="UTF-8" standalone="no"?>
<svg
   xmlns:dc="http://purl.org/dc/elements/1.1/"
   xmlns:cc="http://creativecommons.org/ns#"
   xmlns:rdf="http://www.w3.org/1999/02/22-rdf-syntax-ns#"
   xmlns:svg="http://www.w3.org/2000/svg"
   xmlns="http://www.w3.org/2000/svg"
   xmlns:sodipodi="http://sodipodi.sourceforge.net/DTD/sodipodi-0.dtd"
   xmlns:inkscape="http://www.inkscape.org/namespaces/inkscape"
   version="1.1"
   x="0px"
   y="0px"
   viewBox="0 0 100 100"
   xml:space="preserve"
   id="svg8"
   sodipodi:docname="noun_New Window_1071680.svg"
   width="100"
   height="100"
   inkscape:version="1.0.1 (1921e68f95, 2020-11-30)"><metadata
     id="metadata14"><rdf:RDF><cc:Work
         rdf:about=""><dc:format>image/svg+xml</dc:format><dc:type
           rdf:resource="http://purl.org/dc/dcmitype/StillImage" /><dc:title></dc:title></cc:Work></rdf:RDF></metadata><defs
     id="defs12" /><sodipodi:namedview
     pagecolor="#ffffff"
     bordercolor="#666666"
     borderopacity="1"
     objecttolerance="10"
     gridtolerance="10"
     guidetolerance="10"
     inkscape:pageopacity="0"
     inkscape:pageshadow="2"
     inkscape:window-width="1600"
     inkscape:window-height="836"
     id="namedview10"
     showgrid="false"
     inkscape:zoom="4.216"
     inkscape:cx="50"
     inkscape:cy="53.012334"
     inkscape:window-x="0"
     inkscape:window-y="0"
     inkscape:window-maximized="1"
     inkscape:current-layer="svg8" /><path
     d="m 72.000002,62.998223 4.999999,-5.099999 v 22.100002 c 0,8.299995 -6.7,14.999995 -15,14.999995 H 19.999999 c -8.3,0 -14.9999998,-6.7 -14.9999998,-14.999995 V 37.998223 c 0,-8.3 6.6999998,-15.000001 14.9999998,-15.000001 H 34.9 c -2.3,1.6 -4.5,3.5 -6.5,5.600001 -0.1,0.1 -0.200001,0.3 -0.300001,0.4 H 20.1 c -5.000001,0 -9.000001,3.999999 -9.000001,9 v 42.000003 c 0,4.999995 4,9.000005 9.000001,9.000005 h 42.000001 c 5,0 9.000001,-4.00001 9.000001,-9.000005 V 63.698224 c 0.199999,-0.2 0.599999,-0.5 0.9,-0.700001 z m 22.100001,-27.9 -25.000002,25.000001 c -0.9,0.9 -2.2,1.099999 -3.3,0.6 -1.1,-0.400001 -1.8,-1.5 -1.8,-2.7 V 47.998223 c -7.4,-0.199999 -28.800001,1.3 -41.200001,24.400001 -0.5,1 -1.5,1.6 -2.6,1.6 -0.200001,0 -0.500001,0 -0.7,-0.1 -1.300001,-0.3 -2.300001,-1.5 -2.300001,-2.8 0,-1 -0.9,-24.100001 14.100001,-39.700001 8,-8.400001 19.000001,-12.900001 32.700001,-13.500001 v -9.9 c 0,-1.2 0.7,-2.3 1.8,-2.8 1.2,-0.400001 2.500001,-0.2 3.3,0.7 l 25.000002,25.000001 c 1.199997,1.099999 1.199997,3.099999 0,4.2 z m -6.300001,-2.100001 -17.800001,-17.8 v 5.6 c 0,1.700001 -1.3,3 -3,3 C 53.6,23.798222 43.1,27.698223 35.6,35.498223 c -7,7.3 -10.100001,16.900001 -11.5,24.200001 17.5,-20.700001 43.000001,-17.600001 43.200001,-17.5 1.5,0.199999 2.6,1.499999 2.6,2.999999 v 5.6 z"
     id="path2"
     style="stroke-width:0.999999;fill:#999999" /></svg>
