<?xml version="1.0" encoding="UTF-8" standalone="no"?>
<svg
   xmlns:dc="http://purl.org/dc/elements/1.1/"
   xmlns:cc="http://creativecommons.org/ns#"
   xmlns:rdf="http://www.w3.org/1999/02/22-rdf-syntax-ns#"
   xmlns:svg="http://www.w3.org/2000/svg"
   xmlns="http://www.w3.org/2000/svg"
   xmlns:xlink="http://www.w3.org/1999/xlink"
   xmlns:sodipodi="http://sodipodi.sourceforge.net/DTD/sodipodi-0.dtd"
   xmlns:inkscape="http://www.inkscape.org/namespaces/inkscape"
   width="612"
   height="600"
   viewBox="0 0 161.92503 158.74992"
   version="1.1"
   id="svg8"
   inkscape:version="1.0.1 (1921e68f95, 2020-11-30)"
   sodipodi:docname="page-curl.svg">
  <defs
     id="defs2">
    <inkscape:path-effect
       effect="fillet_chamfer"
       id="path-effect1880"
       is_visible="true"
       lpeversion="1"
       satellites_param="F,0,1,1,0,16.633352,0,1 @ F,0,0,1,0,16.633352,0,1 @ F,0,1,1,0,16.633352,0,1 @ F,0,1,1,0,16.633352,0,1"
       unit="px"
       method="auto"
       mode="F"
       radius="0"
       chamfer_steps="1"
       flexible="false"
       use_knot_distance="true"
       apply_no_radius="true"
       apply_with_radius="true"
       only_selected="false"
       hide_knots="false" />
    <linearGradient
       inkscape:collect="always"
       id="linearGradient1874">
      <stop
         style="stop-color:#999999;stop-opacity:1"
         offset="0"
         id="stop1870" />
      <stop
         style="stop-color:#000000;stop-opacity:0;"
         offset="1"
         id="stop1872" />
    </linearGradient>
    <linearGradient
       inkscape:collect="always"
       id="linearGradient1118">
      <stop
         style="stop-color:#149bff;stop-opacity:1"
         offset="0"
         id="stop1114" />
      <stop
         style="stop-color:#1a9bff;stop-opacity:1"
         offset="0.84533912"
         id="stop1124" />
      <stop
         style="stop-color:#009bff;stop-opacity:0;"
         offset="1"
         id="stop1116" />
    </linearGradient>
    <linearGradient
       inkscape:collect="always"
       id="linearGradient1059">
      <stop
         style="stop-color:#dae7f2;stop-opacity:1"
         offset="0"
         id="stop1055" />
      <stop
         style="stop-color:#99c0e3;stop-opacity:1"
         offset="0.54377931"
         id="stop1126" />
      <stop
         style="stop-color:#0077c8;stop-opacity:1"
         offset="1"
         id="stop1057" />
    </linearGradient>
    <inkscape:path-effect
       effect="fillet_chamfer"
       id="path-effect951"
       is_visible="true"
       lpeversion="1"
       satellites_param="F,0,0,1,0,30.000001,0,1 @ F,0,0,1,0,30.000001,0,1 @ F,0,0,1,0,0,0,1 @ F,0,0,1,0,0,0,1 @ F,0,0,1,0,9.0437935,0,1"
       unit="px"
       method="auto"
       mode="F"
       radius="0"
       chamfer_steps="1"
       flexible="false"
       use_knot_distance="true"
       apply_no_radius="true"
       apply_with_radius="true"
       only_selected="false"
       hide_knots="false" />
    <inkscape:path-effect
       effect="fillet_chamfer"
       id="path-effect947"
       is_visible="true"
       lpeversion="1"
       satellites_param="F,0,0,1,0,30.000001,0,1 @ F,0,0,1,0,30.000001,0,1 @ F,0,0,1,0,0,0,1 @ F,0,0,1,0,0,0,1 @ F,0,0,1,0,9.0437935,0,1"
       unit="px"
       method="auto"
       mode="F"
       radius="0"
       chamfer_steps="1"
       flexible="false"
       use_knot_distance="true"
       apply_no_radius="true"
       apply_with_radius="true"
       only_selected="false"
       hide_knots="false" />
    <inkscape:path-effect
       effect="fillet_chamfer"
       id="path-effect917"
       is_visible="true"
       lpeversion="1"
       satellites_param="F,0,0,1,0,0,0,1 @ F,0,1,1,0,15,0,1 @ F,0,0,1,0,15,0,1 @ F,0,0,1,0,0,0,1"
       unit="px"
       method="auto"
       mode="F"
       radius="0"
       chamfer_steps="1"
       flexible="false"
       use_knot_distance="true"
       apply_no_radius="true"
       apply_with_radius="true"
       only_selected="false"
       hide_knots="false" />
    <inkscape:path-effect
       effect="fillet_chamfer"
       id="path-effect851"
       is_visible="true"
       lpeversion="1"
       satellites_param="F,0,1,1,0,45,0,1 @ F,0,0,1,0,45,0,1 @ F,0,0,1,0,0,0,1 @ F,0,0,1,0,0,0,1"
       unit="px"
       method="auto"
       mode="F"
       radius="0"
       chamfer_steps="1"
       flexible="false"
       use_knot_distance="true"
       apply_no_radius="true"
       apply_with_radius="true"
       only_selected="false"
       hide_knots="false" />
    <inkscape:path-effect
       effect="fillet_chamfer"
       id="path-effect847"
       is_visible="true"
       lpeversion="1"
       satellites_param="F,0,1,1,0,45,0,1 @ F,0,0,1,0,45,0,1 @ F,0,0,1,0,0,0,1 @ F,0,0,1,0,0,0,1"
       unit="px"
       method="auto"
       mode="F"
       radius="0"
       chamfer_steps="1"
       flexible="false"
       use_knot_distance="true"
       apply_no_radius="true"
       apply_with_radius="true"
       only_selected="false"
       hide_knots="false" />
    <inkscape:path-effect
       effect="fillet_chamfer"
       id="path-effect841"
       is_visible="true"
       lpeversion="1"
       satellites_param="F,0,1,1,0,45,0,1 @ F,0,0,1,0,45,0,1 @ F,0,0,1,0,0,0,1 @ F,0,0,1,0,0,0,1"
       unit="px"
       method="auto"
       mode="F"
       radius="0"
       chamfer_steps="1"
       flexible="false"
       use_knot_distance="true"
       apply_no_radius="true"
       apply_with_radius="true"
       only_selected="false"
       hide_knots="false" />
    <inkscape:path-effect
       effect="fillet_chamfer"
       id="path-effect837"
       is_visible="true"
       lpeversion="1"
       satellites_param="F,0,1,1,0,45,0,1 @ F,0,0,1,0,45,0,1 @ F,0,0,1,0,0,0,1 @ F,0,0,1,0,0,0,1"
       unit="px"
       method="auto"
       mode="F"
       radius="0"
       chamfer_steps="1"
       flexible="false"
       use_knot_distance="true"
       apply_no_radius="true"
       apply_with_radius="true"
       only_selected="false"
       hide_knots="false" />
    <linearGradient
       inkscape:collect="always"
       xlink:href="#linearGradient1059"
       id="linearGradient1061"
       x1="1238.3378"
       y1="320.28329"
       x2="1350.9606"
       y2="575.87512"
       gradientUnits="userSpaceOnUse"
       gradientTransform="matrix(0.08331924,0,-0.05809816,0.07721483,-7.4202219,27.854841)" />
    <linearGradient
       inkscape:collect="always"
       xlink:href="#linearGradient1118"
       id="linearGradient1122"
       gradientUnits="userSpaceOnUse"
       x1="1619.9673"
       y1="899.99969"
       x2="1361.4291"
       y2="528.68176"
       gradientTransform="matrix(0.08331924,0,-0.05809816,0.07721483,-7.4202219,27.854841)" />
    <clipPath
       clipPathUnits="userSpaceOnUse"
       id="clipPath1840">
      <path
         style="fill:none;stroke:#000000;stroke-width:0.264583px;stroke-linecap:butt;stroke-linejoin:miter;stroke-opacity:1"
         d="m 54.552597,164.10959 85.331083,52.50916 12.6622,-158.788392 90.38356,68.638112 14.47235,-117.5417354 78.68697,71.5733354 5.31529,-108.552992 43.42297,43.396393 -1.45876,-49.768835 179.35856,216.834314 0.18899,120.54487 -507.152509,0.20672 z"
         id="path1842" />
    </clipPath>
    <clipPath
       clipPathUnits="userSpaceOnUse"
       id="clipPath1852">
      <path
         style="fill:none;stroke:#000000;stroke-width:0.264583px;stroke-linecap:butt;stroke-linejoin:miter;stroke-opacity:1"
         d="M 186.76359,-58.908824 245.66374,352.02028 536.10337,311.74564 622.10415,156.06801 535.45365,10.92161 237.45451,-106.4618 Z"
         id="path1854" />
    </clipPath>
    <clipPath
       clipPathUnits="userSpaceOnUse"
       id="clipPath1858">
      <path
         style="fill:none;stroke:#000000;stroke-width:0.264583px;stroke-linecap:butt;stroke-linejoin:miter;stroke-opacity:1"
         d="m 537.09097,302.14404 c -96.43506,-22.83548 -193.2333,-43.17309 -298.77444,-3.37888 l -27.73836,-193.51942 35.8398,21.15547 11.55256,-114.822078 79.95055,71.136647 6.21174,-110.173716 40.56238,45.858303 c 1.38499,-20.3657849 -4.68274,-53.506952 5.07771,-59.515436 l 176.95768,232.26048 c -1.21463,37.4962 -3.8096,74.91334 -29.63962,110.99863 z"
         id="path1860"
         sodipodi:nodetypes="ccccccccccc" />
    </clipPath>
    <clipPath
       clipPathUnits="userSpaceOnUse"
       id="clipPath1864">
      <path
         style="fill:none;stroke:#000000;stroke-width:0.264583px;stroke-linecap:butt;stroke-linejoin:miter;stroke-opacity:1"
         d="m 521.63567,321.08059 -284.02623,-21.95606 -26.70429,-192.69127 34.05077,20.06177 13.28372,-113.822613 78.29819,68.852196 8.12819,-107.814603 40.07127,43.833502 1.27646,-53.684964 8.19678,0.635293 170.40565,222.673949 z"
         id="path1866" />
    </clipPath>
    <linearGradient
       inkscape:collect="always"
       xlink:href="#linearGradient1874"
       id="linearGradient1876"
       x1="159.47011"
       y1="57.260406"
       x2="464.52905"
       y2="54.349678"
       gradientUnits="userSpaceOnUse" />
    <linearGradient
       inkscape:collect="always"
       xlink:href="#linearGradient1874"
       id="linearGradient1898"
       gradientUnits="userSpaceOnUse"
       x1="159.47011"
       y1="57.260406"
       x2="464.52905"
       y2="54.349678" />
    <linearGradient
       inkscape:collect="always"
       id="linearGradient2218">
      <stop
         style="stop-color:#5555ff;stop-opacity:1"
         offset="0"
         id="stop2214" />
      <stop
         style="stop-color:#ff5555;stop-opacity:1"
         offset="1"
         id="stop2216" />
    </linearGradient>
    <linearGradient
       inkscape:collect="always"
       id="linearGradient2210">
      <stop
         style="stop-color:#ff5555;stop-opacity:1"
         offset="0"
         id="stop2206" />
      <stop
         style="stop-color:#5555ff;stop-opacity:1"
         offset="1"
         id="stop2208" />
    </linearGradient>
    <linearGradient
       inkscape:collect="always"
       id="linearGradient2202">
      <stop
         style="stop-color:#ffff00;stop-opacity:1"
         offset="0"
         id="stop2198" />
      <stop
         style="stop-color:#ffff00;stop-opacity:1"
         offset="1"
         id="stop2200" />
    </linearGradient>
    <rect
       x="69.206116"
       y="94.603012"
       width="106.73664"
       height="64.124252"
       id="rect885" />
    <rect
       x="169.3912"
       y="167.82335"
       width="119.4263"
       height="76.473885"
       id="rect879" />
    <rect
       x="149.87611"
       y="141.241"
       width="62.681446"
       height="22.226034"
       id="rect839" />
    <linearGradient
       inkscape:collect="always"
       xlink:href="#linearGradient2202"
       id="linearGradient2204"
       x1="86.654686"
       y1="109.16055"
       x2="86.582855"
       y2="143.44373"
       gradientUnits="userSpaceOnUse"
       gradientTransform="matrix(0.22224211,0,-0.1433704,0.19054514,52.297857,-3.7523401)" />
    <linearGradient
       inkscape:collect="always"
       xlink:href="#linearGradient2210"
       id="linearGradient2212"
       x1="87.278908"
       y1="105.92841"
       x2="110.44649"
       y2="99.44976"
       gradientUnits="userSpaceOnUse"
       gradientTransform="matrix(0.22224211,0,-0.1433704,0.19054514,52.146125,-3.550682)" />
    <linearGradient
       inkscape:collect="always"
       xlink:href="#linearGradient2218"
       id="linearGradient2220"
       x1="120.65155"
       y1="137.76109"
       x2="100.81452"
       y2="152.54005"
       gradientUnits="userSpaceOnUse"
       gradientTransform="matrix(0.22224211,0,-0.1433704,0.19054514,52.525458,-4.0548316)" />
    <rect
       x="149.87611"
       y="141.241"
       width="62.681446"
       height="22.226034"
       id="rect967" />
    <rect
       x="169.3912"
       y="167.82335"
       width="119.4263"
       height="76.473885"
       id="rect969" />
    <rect
       x="69.206116"
       y="94.603012"
       width="106.73664"
       height="64.124252"
       id="rect971" />
    <filter
       inkscape:collect="always"
       style="color-interpolation-filters:sRGB"
       id="filter1017"
       x="-1.097936e-06"
       width="1.0000021"
       y="-1.3141874e-06"
       height="1.0000026">
      <feGaussianBlur
         inkscape:collect="always"
         stdDeviation="6.7612364e-05"
         id="feGaussianBlur1019" />
    </filter>
    <filter
       inkscape:collect="always"
       style="color-interpolation-filters:sRGB"
       id="filter1081"
       x="-0.008537581"
       width="1.0170752"
       y="-0.014515595"
       height="1.0290312">
      <feGaussianBlur
         inkscape:collect="always"
         stdDeviation="0.51011774"
         id="feGaussianBlur1083" />
    </filter>
  </defs>
  <sodipodi:namedview
     id="base"
     pagecolor="#ffffff"
     bordercolor="#666666"
     borderopacity="1.0"
     inkscape:pageopacity="0.0"
     inkscape:pageshadow="2"
     inkscape:zoom="0.98994949"
     inkscape:cx="-168.54303"
     inkscape:cy="312.60842"
     inkscape:document-units="px"
     inkscape:current-layer="g918"
     inkscape:document-rotation="0"
     showgrid="true"
     units="px"
     showborder="true"
     inkscape:pagecheckerboard="false"
     inkscape:snap-global="false"
     inkscape:object-paths="true"
     inkscape:snap-smooth-nodes="true"
     inkscape:snap-intersection-paths="true"
     inkscape:snap-nodes="true"
     inkscape:window-width="1600"
     inkscape:window-height="836"
     inkscape:window-x="0"
     inkscape:window-y="0"
     inkscape:window-maximized="1"
     inkscape:snap-bbox="false"
     inkscape:object-nodes="true"
     inkscape:bbox-paths="true"
     showguides="true" />
  <metadata
     id="metadata5">
    <rdf:RDF>
      <cc:Work
         rdf:about="">
        <dc:format>image/svg+xml</dc:format>
        <dc:type
           rdf:resource="http://purl.org/dc/dcmitype/StillImage" />
        <dc:title />
      </cc:Work>
    </rdf:RDF>
  </metadata>
  <g
     inkscape:label="Calque 1"
     inkscape:groupmode="layer"
     id="layer1">
    <g
       id="g918"
       transform="matrix(1.0833798,0,0,1.1855978,9.8708207,-0.59464966)"
       style="opacity:1;stroke-width:0.88235;filter:url(#filter1017)">
      <path
         id="path1015"
         style="opacity:0.83812;fill:#1a1a1a;fill-opacity:1;stroke:none;stroke-width:0.233455;stroke-linecap:round;stroke-linejoin:round;stroke-miterlimit:4;stroke-dasharray:none;stroke-opacity:1;paint-order:markers stroke fill;filter:url(#filter1081);stop-color:#000000"
         d="m 62.068868,22.911912 h 74.471562 a 3.5301178,7.2026344 57.946778 0 1 1.58555,4.854204 L 81.969593,102.40027 a 3.5301178,7.2026344 57.946778 0 1 -8.890377,4.85421 H -1.3923474 a 3.5301178,7.2026344 57.946778 0 1 -1.5855509,-4.85421 L 53.178493,27.766116 a 3.5301178,7.2026344 57.946778 0 1 8.890375,-4.854204 z" />
      <path
         id="path921"
         style="fill:#1a1a1a;fill-opacity:1;stroke:none;stroke-width:0.233455px;stroke-linecap:butt;stroke-linejoin:miter;stroke-opacity:1"
         d="M 70.627081,54.495013 A 14.07962,46.341585 51.656963 0 1 47.965729,79.31567 14.07962,46.341585 51.656963 0 1 31.37053,91.243552 l 57.22335,-25.719021 0.07635,-0.445495 a 17.914182,11.237092 29.26041 0 1 -13.180004,-5.552983 17.914182,11.237092 29.26041 0 1 -4.863143,-5.03104 z" />
      <path
         id="path923"
         style="opacity:0.525536;fill:#1a1a1a;fill-opacity:1;stroke:none;stroke-width:0.233455;stroke-linecap:round;stroke-linejoin:round;stroke-miterlimit:4;stroke-dasharray:none;stroke-opacity:1;paint-order:markers stroke fill;stop-color:#000000"
         d="m 58.649781,13.092674 h 74.471559 a 3.5301178,7.2026344 57.946778 0 1 1.58556,4.854204 L 78.550506,92.581022 a 3.5301178,7.2026344 57.946778 0 1 -8.890377,4.854207 H -4.8114334 A 3.5301178,7.2026344 57.946778 0 1 -6.3969843,92.581022 L 49.759406,17.946878 a 3.5301178,7.2026344 57.946778 0 1 8.890375,-4.854204 z" />
      <path
         id="path925"
         style="fill:#1a1a1a;fill-opacity:1;stroke:none;stroke-width:0.233453;stroke-linecap:round;stroke-linejoin:round;stroke-miterlimit:4;stroke-dasharray:none;stroke-opacity:1;paint-order:markers stroke fill;stop-color:#000000"
         d="m 81.05982,57.391926 a 16.697427,12.055948 26.958368 0 0 0.06989,0.06198 16.697427,12.055948 26.958368 0 1 -0.06989,-0.06198 z m 1.934386,1.536906 a 16.697427,12.055948 26.958368 0 0 0.06335,0.04449 16.697427,12.055948 26.958368 0 1 -0.06335,-0.04449 z m 0.141562,0.09908 a 16.697427,12.055948 26.958368 0 0 0.07827,0.05429 16.697427,12.055948 26.958368 0 1 -0.07827,-0.05429 z m 0.07827,0.05429 a 16.697427,12.055948 26.958368 0 0 0.07866,0.05399 16.697427,12.055948 26.958368 0 1 -0.07866,-0.05399 z m 2.209349,1.344921 a 16.697427,12.055948 26.958368 0 0 0.08486,0.04509 16.697427,12.055948 26.958368 0 1 -0.08486,-0.04509 z m 1.730978,0.833984 a 16.697427,12.055948 26.958368 0 0 0.0882,0.03785 16.697427,12.055948 26.958368 0 1 -0.0882,-0.03785 z m 14.669455,0.38879 a 16.697427,12.055948 26.958368 0 1 -8.54961,1.267105 L 93.122902,63.362499 31.571933,89.08152 a 12.989597,50.230342 54.866733 0 1 -18.56532,8.353684 h 61.891548 z m -9.69746,1.102418 a 16.697427,12.055948 26.958368 0 0 0.08806,0.01492 16.697427,12.055948 26.958368 0 1 -0.08806,-0.01492 z" />
      <path
         id="path927"
         style="fill:#1a1a1a;fill-opacity:1;stroke:none;stroke-width:0.233453;stroke-linecap:round;stroke-linejoin:round;stroke-miterlimit:4;stroke-dasharray:none;stroke-opacity:1;paint-order:markers stroke fill;stop-color:#000000"
         d="m 81.05982,57.391926 a 16.697427,12.055948 26.958368 0 0 0.06989,0.06198 16.697427,12.055948 26.958368 0 1 -0.06989,-0.06198 z m 1.934386,1.536906 a 16.697427,12.055948 26.958368 0 0 0.06335,0.04449 16.697427,12.055948 26.958368 0 1 -0.06335,-0.04449 z m 0.141562,0.09908 a 16.697427,12.055948 26.958368 0 0 0.07827,0.05429 16.697427,12.055948 26.958368 0 1 -0.07827,-0.05429 z m 0.07827,0.05429 a 16.697427,12.055948 26.958368 0 0 0.07866,0.05399 16.697427,12.055948 26.958368 0 1 -0.07866,-0.05399 z m 2.209349,1.344921 a 16.697427,12.055948 26.958368 0 0 0.08486,0.04509 16.697427,12.055948 26.958368 0 1 -0.08486,-0.04509 z m 1.730978,0.833984 a 16.697427,12.055948 26.958368 0 0 0.0882,0.03785 16.697427,12.055948 26.958368 0 1 -0.0882,-0.03785 z m 14.669455,0.38879 a 16.697427,12.055948 26.958368 0 1 -8.54961,1.267105 L 93.122902,63.362499 31.571933,89.08152 a 12.989597,50.230342 54.866733 0 1 -18.56532,8.353684 h 61.891548 z m -9.69746,1.102418 a 16.697427,12.055948 26.958368 0 0 0.08806,0.01492 16.697427,12.055948 26.958368 0 1 -0.08806,-0.01492 z" />
      <path
         id="path932"
         style="fill:#1a1a1a;fill-opacity:1;stroke:none;stroke-width:0.233453px;stroke-linecap:butt;stroke-linejoin:miter;stroke-opacity:1"
         d="m 77.011979,52.332996 a 12.989597,50.230342 54.866733 0 1 -26.8378,24.820646 12.989597,50.230342 54.866733 0 1 -18.602248,11.927881 l 61.550968,-25.719021 0.15131,-0.445495 A 16.697427,12.055948 26.958368 0 1 81.028583,57.364024 16.697427,12.055948 26.958368 0 1 77.011979,52.332996 Z" />
      <text
         xml:space="preserve"
         id="text934"
         style="font-size:11.2889px;line-height:1.25;font-family:Barlow;-inkscape-font-specification:Barlow;white-space:pre;shape-inside:url(#rect967);fill:#1a1a1a;stroke-width:1.78241;"
         transform="matrix(0.53462102,0,-0.34488887,0.45837144,54.279498,14.028201)" />
      <text
         xml:space="preserve"
         id="text936"
         style="font-size:11.2889px;line-height:1.25;font-family:Barlow;-inkscape-font-specification:Barlow;white-space:pre;shape-inside:url(#rect969);fill:#1a1a1a;stroke-width:1.78241;"
         transform="matrix(0.53462102,0,-0.34488887,0.45837144,54.279498,14.028201)" />
      <text
         xml:space="preserve"
         id="text938"
         style="font-size:11.2889px;line-height:1.25;font-family:Barlow;-inkscape-font-specification:Barlow;white-space:pre;shape-inside:url(#rect971);fill:#1a1a1a;stroke-width:1.78241;"
         transform="matrix(0.53462102,0,-0.34488887,0.45837144,54.279498,14.028201)" />
      <path
         d="m 56.850163,19.458888 q 0.395147,0 0.479995,0.173158 0.08485,0.173159 -0.130414,0.45925 l -0.951671,1.264811 q -0.02832,0.03764 -0.07223,0.03764 h -0.223917 q -0.04391,0 -0.01559,-0.03764 l 0.116127,-0.154338 q 0.0057,-0.0075 -2.81e-4,-0.0113 -0.0016,-0.0038 -0.016,0.0038 -0.194734,0.11293 -0.415673,0.173161 -0.218105,0.05646 -0.433241,0.05646 -0.311728,0 -0.420506,-0.135517 -0.10878,-0.135515 0.100815,-0.414075 0.212427,-0.282324 0.571306,-0.44419 0.366104,-0.165632 0.791984,-0.165632 h 0.5093 q 0.01757,0 0.0289,-0.01506 l 0.107625,-0.143039 q 0.144451,-0.191981 0.09927,-0.301147 -0.03797,-0.112928 -0.301394,-0.112928 -0.210747,0 -0.396276,0.07152 -0.182697,0.06776 -0.3069,0.191981 -0.0415,0.03764 -0.07818,0.03388 l -0.217252,-0.02635 q -0.04263,-0.0075 -0.01686,-0.03011 0.193738,-0.210802 0.521178,-0.342554 0.327439,-0.131751 0.6699,-0.131751 z m -1.42865,1.735352 q 0.259038,0 0.529969,-0.109165 0.273762,-0.112929 0.41538,-0.301144 l 0.220926,-0.29362 q 0.01133,-0.01506 -0.0062,-0.01506 h -0.461005 q -0.289774,0 -0.54187,0.101637 -0.252093,0.101636 -0.388048,0.282326 -0.124624,0.16563 -0.05805,0.252209 0.07379,0.08282 0.288927,0.08282 z"
         style="font-size:19.7556px;line-height:1.25;font-family:Barlow;-inkscape-font-specification:Barlow;fill:#1a1a1a;fill-opacity:1;stroke-width:0.233453"
         id="path940" />
      <path
         d="m 59.67447,19.963308 q -0.07009,0.180687 -0.293849,0.478067 -0.226589,0.301147 -0.40829,0.466776 -0.260301,0.240919 -0.575843,0.380197 -0.308321,0.135517 -0.624435,0.135517 -0.171231,0 -0.273632,-0.05646 -0.09957,-0.06023 -0.114022,-0.169395 -0.0031,-0.0075 -0.01474,-0.0038 -0.0044,0 -0.01007,0.0075 l -0.665605,0.884617 q -0.02832,0.03764 -0.07223,0.03764 h -0.223931 q -0.0439,0 -0.01558,-0.03764 l 1.925998,-2.559731 q 0.02832,-0.03764 0.07222,-0.03764 h 0.223917 q 0.04391,0 0.01559,0.03764 l -0.11896,0.158103 q -0.0057,0.0075 -0.0041,0.0113 0.0088,0 0.02323,-0.0075 0.178732,-0.109165 0.364548,-0.169395 0.190201,-0.06023 0.365825,-0.06023 0.307335,0 0.411722,0.135518 0.108782,0.135514 0.0122,0.368904 z m -1.063439,0.952372 q 0.110607,-0.08281 0.209031,-0.184451 0.10566,-0.105401 0.244446,-0.289854 0.13312,-0.176921 0.189198,-0.274794 0.0589,-0.101637 0.07448,-0.180687 0.04928,-0.135517 -0.02735,-0.214568 -0.07224,-0.07905 -0.256639,-0.07905 -0.175619,0 -0.353642,0.07905 -0.178023,0.07905 -0.334234,0.210802 -0.09616,0.07529 -0.190199,0.176924 -0.09405,0.101639 -0.229998,0.282323 -0.135955,0.18069 -0.197688,0.286089 -0.0589,0.101637 -0.07448,0.180687 -0.04361,0.127989 0.01545,0.207041 0.06629,0.07529 0.233127,0.07529 0.17562,0 0.359592,-0.07529 0.188363,-0.07529 0.338909,-0.199512 z"
         style="font-size:19.7556px;line-height:1.25;font-family:Barlow;-inkscape-font-specification:Barlow;fill:#1a1a1a;fill-opacity:1;stroke-width:0.233453"
         id="path942" />
      <path
         d="m 62.913505,18.758722 q 0.0439,0 0.01558,0.03764 l -0.121791,0.161866 q -0.02833,0.03765 -0.07223,0.03765 h -0.860541 q -0.01756,0 -0.0289,0.01506 l -1.76456,2.345173 q -0.02832,0.03764 -0.07223,0.03764 h -0.223917 q -0.04391,0 -0.01558,-0.03764 l 1.764557,-2.345169 q 0.01133,-0.01506 -0.0062,-0.01506 h -0.825416 q -0.0439,0 -0.01557,-0.03764 l 0.12179,-0.161865 q 0.02832,-0.03764 0.07222,-0.03764 z"
         style="font-size:19.7556px;line-height:1.25;font-family:Barlow;-inkscape-font-specification:Barlow;fill:#1a1a1a;fill-opacity:1;stroke:#5555ff;stroke-width:0.233453;stroke-opacity:1"
         id="path944" />
      <path
         d="m 63.340542,19.47018 q 0.14489,0 0.21344,0.04894 0.0238,0.01506 -0.01047,0.04894 l -0.187082,0.184453 q -0.0415,0.03764 -0.07408,0.02259 -0.05481,-0.02635 -0.151402,-0.02635 l -0.05991,0.0038 q -0.233977,0.0075 -0.488046,0.146806 -0.251245,0.135518 -0.409857,0.34632 l -0.835546,1.110475 q -0.02832,0.03764 -0.07223,0.03764 h -0.223916 q -0.0439,0 -0.01558,-0.03764 l 1.37653,-1.829465 q 0.02832,-0.03764 0.07222,-0.03764 h 0.223918 q 0.04391,0 0.01559,0.03764 l -0.172775,0.229624 q -0.0085,0.0113 -0.0069,0.01506 0.0088,0 0.01884,-0.0075 0.196999,-0.139278 0.394142,-0.214565 0.204366,-0.07905 0.393158,-0.07905 z"
         style="font-size:19.7556px;line-height:1.25;font-family:Barlow;-inkscape-font-specification:Barlow;fill:#1a1a1a;fill-opacity:1;stroke-width:0.233453"
         id="path946" />
      <path
         d="m 64.497031,19.142684 q -0.105371,0 -0.130302,-0.06023 -0.02493,-0.06023 0.04305,-0.150574 0.07081,-0.0941 0.183539,-0.150572 0.115564,-0.06023 0.220938,-0.06023 0.105373,0 0.130301,0.06023 0.02776,0.05647 -0.04305,0.150572 -0.06798,0.09035 -0.183541,0.150574 -0.115564,0.06023 -0.220937,0.06023 z m -1.813852,2.247301 q -0.04391,0 -0.01559,-0.03764 l 1.376526,-1.829458 q 0.02833,-0.03765 0.07223,-0.03765 h 0.223917 q 0.0439,0 0.01557,0.03765 l -1.376526,1.82946 q -0.02832,0.03764 -0.07222,0.03764 z"
         style="font-size:19.7556px;line-height:1.25;font-family:Barlow;-inkscape-font-specification:Barlow;fill:#1a1a1a;fill-opacity:1;stroke-width:0.233453"
         id="path948" />
      <path
         d="m 66.517658,19.963308 q -0.07009,0.180687 -0.293849,0.478067 -0.22659,0.301147 -0.408291,0.466776 -0.2603,0.240919 -0.575842,0.380197 -0.30832,0.135517 -0.624438,0.135517 -0.171228,0 -0.273632,-0.05646 -0.09957,-0.06023 -0.11402,-0.169395 -0.0031,-0.0075 -0.01474,-0.0038 -0.0044,0 -0.01007,0.0075 l -0.665605,0.884617 q -0.02832,0.03764 -0.07223,0.03764 h -0.223917 q -0.0439,0 -0.01558,-0.03764 l 1.925999,-2.559731 q 0.02832,-0.03764 0.07222,-0.03764 h 0.223917 q 0.04391,0 0.01559,0.03764 l -0.11896,0.158103 q -0.0057,0.0075 -0.0041,0.0113 0.0088,0 0.02324,-0.0075 0.178728,-0.109165 0.364544,-0.169395 0.190205,-0.06023 0.365825,-0.06023 0.307336,0 0.411725,0.135518 0.10878,0.135514 0.0122,0.368904 z m -1.063436,0.952372 q 0.110606,-0.08281 0.209031,-0.184451 0.10566,-0.105401 0.244446,-0.289854 0.13312,-0.176921 0.189198,-0.274794 0.0589,-0.101637 0.07449,-0.180687 0.04927,-0.135517 -0.02735,-0.214568 -0.07223,-0.07905 -0.256639,-0.07905 -0.175619,0 -0.353644,0.07905 -0.178024,0.07905 -0.334232,0.210802 -0.09616,0.07529 -0.190199,0.176924 -0.09405,0.101639 -0.229998,0.282323 -0.135955,0.18069 -0.197688,0.286089 -0.0589,0.101637 -0.07449,0.180687 -0.04361,0.127989 0.01544,0.207041 0.06629,0.07529 0.23313,0.07529 0.175619,0 0.359592,-0.07529 0.188363,-0.07529 0.338909,-0.199512 z"
         style="font-size:19.7556px;line-height:1.25;font-family:Barlow;-inkscape-font-specification:Barlow;fill:#1a1a1a;fill-opacity:1;stroke-width:0.233453"
         id="path950" />
      <path
         id="path952"
         style="font-size:19.7556px;line-height:1.25;font-family:Barlow;-inkscape-font-specification:Barlow;fill:#1a1a1a;fill-opacity:1;stroke-width:0.233453"
         d="m 61.3075,14.974395 c -0.78524,0 -1.576398,0.13461 -2.373564,0.40391 -0.789928,0.25968 -1.534156,0.630013 -2.232524,1.110906 -0.194582,0.136176 -0.380079,0.278321 -0.557279,0.426066 l -0.05144,0.07799 c 1.255801,-0.599316 2.532717,-1.025055 3.855101,-1.076441 0.228388,-0.0316 0.45722,-0.04795 0.686689,-0.04795 0.830112,0 1.341974,0.206776 1.535593,0.620344 0.200859,0.403945 0.04438,0.947351 -0.469428,1.630217 l -0.0326,0.04333 c -0.06513,0.08656 -0.04158,0.129778 0.0706,0.129778 l 0.890851,-0.04332 c 0.04487,0 0.09488,-0.01437 0.150247,-0.04323 0.05535,-0.02885 0.101246,-0.0674 0.137439,-0.115501 0.463144,-0.615536 0.703607,-1.158847 0.721674,-1.630121 0.02927,-0.471271 -0.155574,-0.836844 -0.554723,-1.096525 -0.399148,-0.259682 -0.991395,-0.389437 -1.776634,-0.389437 z" />
      <path
         id="path955"
         style="font-size:19.7556px;line-height:1.25;font-family:Barlow;-inkscape-font-specification:Barlow;fill:#1a1a1a;fill-opacity:1;stroke-width:0.233453"
         d="m 61.590357,14.920829 c 0.09506,0.0021 0.187213,0.0061 0.276318,0.01222 -0.08907,-0.0061 -0.181222,-0.01018 -0.276318,-0.01222 z m -0.734956,0.02373 c -0.09852,0.0084 -0.197262,0.01899 -0.295971,0.03161 0.09871,-0.01262 0.197438,-0.02319 0.295971,-0.03161 z m 1.935908,0.158827 c 0.05616,0.01928 0.109604,0.0404 0.161251,0.06272 -0.05166,-0.02233 -0.105071,-0.04343 -0.161251,-0.06272 z m 0.430711,0.205402 c 0.04986,0.03244 0.09645,0.06657 0.139621,0.102307 -0.04319,-0.03577 -0.08973,-0.06985 -0.139621,-0.102307 z m 0.259171,0.214658 c 0.03648,0.03905 0.06967,0.07975 0.09946,0.122101 -0.02981,-0.04239 -0.06296,-0.08302 -0.09946,-0.122101 z m -5.278738,0.13864 c -0.141676,0.06425 -0.281802,0.132398 -0.420257,0.20442 0.138464,-0.07203 0.278574,-0.140171 0.420257,-0.20442 z m 2.569909,0.15174 c 0.103767,0 0.202589,0.0032 0.296403,0.0096 -0.09382,-0.0065 -0.192636,-0.0096 -0.296403,-0.0096 z m 0,0 c -0.05642,0 -0.112673,9.47e-4 -0.169102,0.003 0.05627,-0.0019 0.112706,-0.003 0.169102,-0.003 z m -0.169102,0.003 c -0.0058,1.9e-4 -0.01143,4.73e-4 -0.01737,9.48e-4 0.0058,-1.9e-4 0.01159,-7.09e-4 0.01737,-9.48e-4 z m -0.01737,9.48e-4 c -0.05114,0.0019 -0.102221,0.0046 -0.153315,0.0081 0.05109,-0.0036 0.102165,-0.0061 0.153315,-0.0081 z m -0.153315,0.0081 c -0.0049,4.73e-4 -0.0096,7.09e-4 -0.01457,0.0012 0.0049,-4.73e-4 0.0096,-7.09e-4 0.01457,-0.0012 z m -0.01457,0.0012 c -0.05374,0.0038 -0.107449,0.0086 -0.161121,0.01418 0.05368,-0.0056 0.107393,-0.0103 0.161121,-0.01418 z m -0.161121,0.01418 c -0.05716,0.0059 -0.114277,0.01288 -0.171363,0.02077 0.0571,-0.0079 0.114214,-0.0148 0.171363,-0.02077 z m 0.948695,-0.0054 c 0.08883,0.0097 0.172709,0.02264 0.251606,0.0388 -0.0789,-0.01615 -0.16276,-0.02911 -0.251606,-0.0388 z m 2.486427,0.01191 c 0.0099,0.02366 0.01903,0.0477 0.02723,0.07218 -0.0082,-0.02449 -0.01735,-0.04851 -0.02723,-0.07218 z m -3.606598,0.01428 c -1.322331,0.05141 -2.599211,0.47714 -3.854973,1.076437 l 0.05136,-0.07788 c -0.44852,0.373975 -0.841675,0.784808 -1.178832,1.232903 l -2.985108,3.967331 c -0.477619,0.634775 -0.738405,1.197412 -0.78216,1.687918 -2.06e-4,9.81e-4 -1.03e-4,0.002 -1.38e-4,0.0028 l 0.03425,-0.102603 c 0.528311,0.536464 1.501206,0.676083 2.613753,0.691041 l 8.14e-4,-7.87e-4 c -0.618387,-0.0541 -1.010418,-0.255222 -1.174072,-0.604778 -0.19362,-0.413566 -0.03706,-0.957069 0.469503,-1.630317 l 3.039455,-4.03956 c 0.506565,-0.673246 1.167823,-1.216652 1.983796,-1.630218 0.590372,-0.299223 1.184537,-0.489658 1.782307,-0.572389 z m -6.1009,8.477121 c 0.0531,0.0047 0.107656,0.0084 0.164125,0.01082 -0.0562,-0.0026 -0.111022,-0.0062 -0.164125,-0.01082 z m 0.164125,0.01082 c 0.0057,1.91e-4 0.01115,5.26e-4 0.01676,7.88e-4 -0.0057,-1.91e-4 -0.01115,-5.25e-4 -0.01676,-7.88e-4 z m 0.01676,7.88e-4 c 0.05861,0.0024 0.118471,0.0039 0.18069,0.0039 -0.06226,0 -0.122168,-0.0016 -0.18069,-0.0039 z m 3.478949,-8.410943 c -0.09153,0.04971 -0.182492,0.101232 -0.272594,0.154397 0.09016,-0.0532 0.181006,-0.104656 0.272594,-0.154397 z m 4.311518,0.116386 c 0.05404,0.03231 0.103067,0.06787 0.147159,0.106641 -0.04409,-0.03877 -0.09312,-0.07433 -0.147159,-0.106641 z m 1.821759,0.177438 c 0.003,0.05561 0.0027,0.112817 -9.27e-4,0.171728 0.0037,-0.05889 0.004,-0.116145 9.27e-4,-0.171728 z m -9.27e-4,0.171728 c -0.0034,0.08836 -0.01454,0.179223 -0.03357,0.272654 0.01903,-0.09344 0.03019,-0.184292 0.03357,-0.272654 z m -6.937439,0.02885 c -0.04637,0.03245 -0.09203,0.06527 -0.13741,0.09837 0.04531,-0.03309 0.09109,-0.06595 0.13741,-0.09837 z m -0.137403,0.09836 c -0.01141,0.0083 -0.02265,0.01682 -0.03402,0.02521 0.01136,-0.0084 0.02258,-0.01686 0.03402,-0.02521 z m -0.03402,0.02521 c -0.03542,0.02611 -0.07059,0.05236 -0.105397,0.07887 0.03481,-0.02655 0.06999,-0.05273 0.105397,-0.07887 z m -0.105397,0.07887 c -0.0079,0.006 -0.01575,0.01206 -0.02363,0.01812 0.0079,-0.006 0.01574,-0.0121 0.02363,-0.01812 z m -0.02363,0.01812 c -0.04052,0.03109 -0.08064,0.06249 -0.120327,0.09414 0.03969,-0.03168 0.07983,-0.06301 0.120327,-0.09414 z m 5.802518,-0.143168 c 0.0098,0.02634 0.01814,0.05322 0.02511,0.08065 -0.007,-0.02743 -0.01535,-0.05431 -0.02511,-0.08065 z m 0.04192,0.164538 c 0.0084,0.05703 0.01111,0.116244 0.0083,0.177634 0.0028,-0.06139 6.3e-5,-0.120604 -0.0083,-0.177634 z m -5.96942,0.07651 c -0.04395,0.0351 -0.08738,0.07056 -0.130317,0.106342 0.04293,-0.03577 0.08641,-0.07123 0.130317,-0.106342 z m 5.60057,1.06226 c -0.05302,0.081 -0.111694,0.164157 -0.175921,0.249516 0.06423,-0.08536 0.122875,-0.168517 0.175921,-0.249516 z m -0.244347,0.37191 c 2.15e-4,0.0068 0.0018,0.01291 0.0047,0.01831 -0.003,-0.0054 -0.0045,-0.01156 -0.0047,-0.01831 z m 0.03889,0.04263 c 0.01694,0.0054 0.0395,0.0081 0.06754,0.0081 -0.02804,0 -0.05057,-0.0027 -0.06754,-0.0081 z m -2.872862,3.748243 c -0.01108,0.0054 -0.02174,0.01145 -0.03207,0.01822 0.01041,-0.0068 0.02109,-0.0128 0.03218,-0.01822 -3.7e-5,1.7e-5 -7.8e-5,-1.7e-5 -1.13e-4,0 z m 0.97632,0.01082 c 0.02805,-2e-6 0.05056,0.0027 0.06753,0.0081 -0.01696,-0.0054 -0.03949,-0.0081 -0.06753,-0.0081 z m 0.10173,0.03239 c 0.003,0.0054 0.0045,0.01154 0.0047,0.01831 -2.08e-4,-0.0068 -0.0017,-0.0129 -0.0047,-0.01831 z m -1.214986,0.08291 c -0.06423,0.08536 -0.130823,0.168659 -0.199785,0.249812 0.06898,-0.08115 0.135558,-0.164452 0.199785,-0.249812 z m 0.795795,0.48505 c -0.05587,0.06206 -0.113116,0.123281 -0.171554,0.183738 0.05842,-0.06046 0.115666,-0.121674 0.171554,-0.183738 z m -2.069761,0.732497 c -0.09019,0.06222 -0.182689,0.122282 -0.277606,0.180292 0.09492,-0.05801 0.187417,-0.118077 0.277606,-0.180292 z m -0.421845,0.265761 c -0.09728,0.0559 -0.196875,0.109693 -0.29887,0.161387 0.101994,-0.05169 0.201592,-0.105483 0.29887,-0.161387 z m 1.382943,0.0066 c -0.08371,0.06234 -0.169206,0.123552 -0.256464,0.183639 0.08729,-0.06011 0.172736,-0.121274 0.256464,-0.183639 z m -7.152114,0.265171 c 3.61e-4,0.02261 8.85e-4,0.04514 0.0022,0.06726 -0.0013,-0.02211 -0.0019,-0.04464 -0.0022,-0.06726 z m 0.02788,0.257687 c 0.0037,0.01789 0.0073,0.03586 0.01175,0.05337 -0.0045,-0.01751 -0.008,-0.03549 -0.01175,-0.05337 z m 0.01175,0.05337 c 0.0066,0.02585 0.01396,0.05129 0.02217,0.07632 -0.0082,-0.02503 -0.01559,-0.05045 -0.02217,-0.07632 z m 0.02217,0.07632 c 0.0082,0.02506 0.0172,0.04971 0.02705,0.07395 -0.0098,-0.02421 -0.01884,-0.04892 -0.02705,-0.07395 z m 4.0004,-0.0011 c -0.09156,0.0191 -0.183347,0.03614 -0.275169,0.05021 0.09186,-0.01407 0.183574,-0.03111 0.275169,-0.05021 z m -0.448161,0.07346 c -0.148478,0.01763 -0.29735,0.02903 -0.446518,0.03357 0.149229,-0.0046 0.297998,-0.01593 0.446518,-0.03357 z m 2.35758,0.01663 c -0.09098,0.04732 -0.182826,0.09305 -0.275517,0.137068 0.09272,-0.04403 0.184511,-0.08973 0.275517,-0.137068 z m -0.698618,0.324055 c -0.09526,0.03906 -0.191451,0.0765 -0.288433,0.112254 0.09702,-0.03577 0.193128,-0.07318 0.288433,-0.112254 z m -4.84494,0.119836 c 0.03868,0.03284 0.07959,0.06454 0.123508,0.09472 -0.04392,-0.03018 -0.08483,-0.06189 -0.123508,-0.09472 z m 4.114776,0.141889 c -0.148058,0.04565 -0.29607,0.08676 -0.44396,0.123281 0.147889,-0.03652 0.295902,-0.07763 0.44396,-0.123281 z m -3.560559,0.158236 c 0.06497,0.02232 0.133,0.04259 0.204008,0.06085 -0.07101,-0.01826 -0.139034,-0.03853 -0.204008,-0.06085 z m 2.820912,0.032 c -0.09853,0.02029 -0.197019,0.03852 -0.295469,0.05475 0.09845,-0.01623 0.196941,-0.03446 0.295469,-0.05475 z m -2.394827,0.07759 c 0.154079,0.0284 0.320261,0.04868 0.498472,0.06085 -0.178205,-0.01218 -0.344389,-0.03245 -0.498472,-0.06085 z m 0.634377,0.06843 c 0.0921,0.0041 0.187221,0.0061 0.285376,0.0061 -0.09815,0 -0.193274,-0.002 -0.285376,-0.0061 z" />
      <path
         id="path957"
         style="font-size:19.7556px;line-height:1.25;font-family:Barlow;-inkscape-font-specification:Barlow;fill:#1a1a1a;fill-opacity:1;stroke-width:0.882368"
         d="m 59.218921,21.836133 c -0.112231,0 -0.200783,0.04325 -0.265872,0.129762 l -0.02165,0.02877 c -0.51384,0.682914 -1.178784,1.231112 -1.994752,1.644786 -0.80888,0.403955 -1.628245,0.605934 -2.458321,0.605934 -0.128455,0 -0.248162,-0.0057 -0.361385,-0.01563 l -8.14e-4,7.88e-4 C 53.003418,24.215663 52.030545,24.076 51.502182,23.539615 l -0.03418,0.102513 c -0.02448,0.479602 0.158762,0.853833 0.549997,1.122501 0.399105,0.259714 0.991209,0.389666 1.776435,0.389666 0.785182,0 1.572801,-0.129952 2.362934,-0.389666 0.789911,-0.259712 1.524715,-0.625178 2.204632,-1.096396 0.698342,-0.480936 1.282863,-1.033898 1.753262,-1.659077 0.06509,-0.08651 0.04141,-0.129761 -0.0706,-0.129761 z" />
      <text
         xml:space="preserve"
         style="font-size:4.33098px;line-height:1.25;font-family:Audiowide;-inkscape-font-specification:Audiowide;fill:#1a1a1a;stroke:#2c5aa0;stroke-width:0.233453"
         x="62.07288"
         y="44.270771"
         id="text963"
         transform="matrix(1.0799764,0,-0.69670249,0.92594616,0,0)"><tspan
           sodipodi:role="line"
           id="tspan959"
           x="62.07288"
           y="44.270771"
           style="font-size:4.33098px;fill:#1a1a1a;stroke:#2c5aa0;stroke-width:0.233453">Travel,...</tspan><tspan
           sodipodi:role="line"
           x="62.07288"
           y="49.684494"
           style="font-size:4.33098px;fill:#1a1a1a;stroke:#2c5aa0;stroke-width:0.233453"
           id="tspan961">           a way to turn the page</tspan></text>
      <path
         id="path1878"
         style="fill:#999999;fill-opacity:1;stroke:none;stroke-width:0.233455px;stroke-linecap:butt;stroke-linejoin:miter;stroke-opacity:1"
         d="M 70.627081,54.495013 A 14.07962,46.341585 51.656963 0 1 47.965729,79.31567 14.07962,46.341585 51.656963 0 1 31.37053,91.243552 l 57.22335,-25.719021 0.07635,-0.445495 a 17.914182,11.237092 29.26041 0 1 -13.180004,-5.552983 17.914182,11.237092 29.26041 0 1 -4.863143,-5.03104 z" />
      <path
         id="rect1032"
         style="fill:#0000ff;fill-opacity:1;stroke:none;stroke-width:0.233455;stroke-linecap:round;stroke-linejoin:round;stroke-miterlimit:4;stroke-dasharray:none;stroke-opacity:1;paint-order:markers stroke fill;stop-color:#000000"
         d="m 58.649781,13.092674 h 74.471569 a 3.5301178,7.2026344 57.946778 0 1 1.58555,4.854204 L 78.550506,92.581022 a 3.5301178,7.2026344 57.946778 0 1 -8.890377,4.854207 H -4.8114318 A 3.5301178,7.2026344 57.946778 0 1 -6.3969827,92.581022 L 49.759406,17.946878 a 3.5301178,7.2026344 57.946778 0 1 8.890375,-4.854204 z" />
      <path
         id="path1868"
         style="fill:#333333;fill-opacity:1;stroke:none;stroke-width:0.233453;stroke-linecap:round;stroke-linejoin:round;stroke-miterlimit:4;stroke-dasharray:none;stroke-opacity:1;paint-order:markers stroke fill;stop-color:#000000"
         d="m 81.05982,57.391926 a 16.697427,12.055948 26.958368 0 0 0.06989,0.06198 16.697427,12.055948 26.958368 0 1 -0.06989,-0.06198 z m 1.934386,1.536906 a 16.697427,12.055948 26.958368 0 0 0.06335,0.04449 16.697427,12.055948 26.958368 0 1 -0.06335,-0.04449 z m 0.141562,0.09908 a 16.697427,12.055948 26.958368 0 0 0.07827,0.05429 16.697427,12.055948 26.958368 0 1 -0.07827,-0.05429 z m 0.07827,0.05429 a 16.697427,12.055948 26.958368 0 0 0.07866,0.05399 16.697427,12.055948 26.958368 0 1 -0.07866,-0.05399 z m 2.209349,1.344921 a 16.697427,12.055948 26.958368 0 0 0.08486,0.04509 16.697427,12.055948 26.958368 0 1 -0.08486,-0.04509 z m 1.730978,0.833984 a 16.697427,12.055948 26.958368 0 0 0.0882,0.03785 16.697427,12.055948 26.958368 0 1 -0.0882,-0.03785 z m 14.669455,0.38879 a 16.697427,12.055948 26.958368 0 1 -8.54961,1.267105 L 93.122902,63.362499 31.571933,89.08152 a 12.989597,50.230342 54.866733 0 1 -18.56532,8.353684 h 61.891548 z m -9.69746,1.102418 a 16.697427,12.055948 26.958368 0 0 0.08806,0.01492 16.697427,12.055948 26.958368 0 1 -0.08806,-0.01492 z" />
      <path
         id="path1047"
         style="fill:url(#linearGradient1122);fill-opacity:1;stroke:none;stroke-width:0.233453;stroke-linecap:round;stroke-linejoin:round;stroke-miterlimit:4;stroke-dasharray:none;stroke-opacity:1;paint-order:markers stroke fill;stop-color:#000000"
         d="m 81.05982,57.391926 a 16.697427,12.055948 26.958368 0 0 0.06989,0.06198 16.697427,12.055948 26.958368 0 1 -0.06989,-0.06198 z m 1.934386,1.536906 a 16.697427,12.055948 26.958368 0 0 0.06335,0.04449 16.697427,12.055948 26.958368 0 1 -0.06335,-0.04449 z m 0.141562,0.09908 a 16.697427,12.055948 26.958368 0 0 0.07827,0.05429 16.697427,12.055948 26.958368 0 1 -0.07827,-0.05429 z m 0.07827,0.05429 a 16.697427,12.055948 26.958368 0 0 0.07866,0.05399 16.697427,12.055948 26.958368 0 1 -0.07866,-0.05399 z m 2.209349,1.344921 a 16.697427,12.055948 26.958368 0 0 0.08486,0.04509 16.697427,12.055948 26.958368 0 1 -0.08486,-0.04509 z m 1.730978,0.833984 a 16.697427,12.055948 26.958368 0 0 0.0882,0.03785 16.697427,12.055948 26.958368 0 1 -0.0882,-0.03785 z m 14.669455,0.38879 a 16.697427,12.055948 26.958368 0 1 -8.54961,1.267105 L 93.122902,63.362499 31.571933,89.08152 a 12.989597,50.230342 54.866733 0 1 -18.56532,8.353684 h 61.891548 z m -9.69746,1.102418 a 16.697427,12.055948 26.958368 0 0 0.08806,0.01492 16.697427,12.055948 26.958368 0 1 -0.08806,-0.01492 z" />
      <path
         id="path1049"
         style="fill:url(#linearGradient1061);fill-opacity:1;stroke:none;stroke-width:0.233453px;stroke-linecap:butt;stroke-linejoin:miter;stroke-opacity:1"
         d="m 77.011979,52.332996 a 12.989597,50.230342 54.866733 0 1 -26.8378,24.820646 12.989597,50.230342 54.866733 0 1 -18.602248,11.927881 l 61.550968,-25.719021 0.15131,-0.445495 A 16.697427,12.055948 26.958368 0 1 81.028583,57.364024 16.697427,12.055948 26.958368 0 1 77.011979,52.332996 Z" />
      <text
         xml:space="preserve"
         id="text837"
         style="font-size:11.2889px;line-height:1.25;font-family:Barlow;-inkscape-font-specification:Barlow;white-space:pre;shape-inside:url(#rect839);stroke-width:1.78241;"
         transform="matrix(0.53462102,0,-0.34488887,0.45837144,54.279498,14.028201)" />
      <text
         xml:space="preserve"
         id="text877"
         style="font-size:11.2889px;line-height:1.25;font-family:Barlow;-inkscape-font-specification:Barlow;white-space:pre;shape-inside:url(#rect879);stroke-width:1.78241;"
         transform="matrix(0.53462102,0,-0.34488887,0.45837144,54.279498,14.028201)" />
      <text
         xml:space="preserve"
         id="text883"
         style="font-size:11.2889px;line-height:1.25;font-family:Barlow;-inkscape-font-specification:Barlow;white-space:pre;shape-inside:url(#rect885);stroke-width:1.78241;"
         transform="matrix(0.53462102,0,-0.34488887,0.45837144,54.279498,14.028201)" />
      <path
         d="m 56.850163,19.458888 q 0.395147,0 0.479995,0.173158 0.08485,0.173159 -0.130414,0.45925 l -0.951671,1.264811 q -0.02832,0.03764 -0.07223,0.03764 h -0.223917 q -0.04391,0 -0.01559,-0.03764 l 0.116127,-0.154338 q 0.0057,-0.0075 -2.81e-4,-0.0113 -0.0016,-0.0038 -0.016,0.0038 -0.194734,0.11293 -0.415673,0.173161 -0.218105,0.05646 -0.433241,0.05646 -0.311728,0 -0.420506,-0.135517 -0.10878,-0.135515 0.100815,-0.414075 0.212427,-0.282324 0.571306,-0.44419 0.366104,-0.165632 0.791984,-0.165632 h 0.5093 q 0.01757,0 0.0289,-0.01506 l 0.107625,-0.143039 q 0.144451,-0.191981 0.09927,-0.301147 -0.03797,-0.112928 -0.301394,-0.112928 -0.210747,0 -0.396276,0.07152 -0.182697,0.06776 -0.3069,0.191981 -0.0415,0.03764 -0.07818,0.03388 l -0.217252,-0.02635 q -0.04263,-0.0075 -0.01686,-0.03011 0.193738,-0.210802 0.521178,-0.342554 0.327439,-0.131751 0.6699,-0.131751 z m -1.42865,1.735352 q 0.259038,0 0.529969,-0.109165 0.273762,-0.112929 0.41538,-0.301144 l 0.220926,-0.29362 q 0.01133,-0.01506 -0.0062,-0.01506 h -0.461005 q -0.289774,0 -0.54187,0.101637 -0.252093,0.101636 -0.388048,0.282326 -0.124624,0.16563 -0.05805,0.252209 0.07379,0.08282 0.288927,0.08282 z"
         style="font-size:19.7556px;line-height:1.25;font-family:Barlow;-inkscape-font-specification:Barlow;fill:#ffff00;fill-opacity:1;stroke-width:0.233453"
         id="path891" />
      <path
         d="m 59.67447,19.963308 q -0.07009,0.180687 -0.293849,0.478067 -0.226589,0.301147 -0.40829,0.466776 -0.260301,0.240919 -0.575843,0.380197 -0.308321,0.135517 -0.624435,0.135517 -0.171231,0 -0.273632,-0.05646 -0.09957,-0.06023 -0.114022,-0.169395 -0.0031,-0.0075 -0.01474,-0.0038 -0.0044,0 -0.01007,0.0075 l -0.665605,0.884617 q -0.02832,0.03764 -0.07223,0.03764 h -0.223931 q -0.0439,0 -0.01558,-0.03764 l 1.925998,-2.559731 q 0.02832,-0.03764 0.07222,-0.03764 h 0.223917 q 0.04391,0 0.01559,0.03764 l -0.11896,0.158103 q -0.0057,0.0075 -0.0041,0.0113 0.0088,0 0.02323,-0.0075 0.178732,-0.109165 0.364548,-0.169395 0.190201,-0.06023 0.365825,-0.06023 0.307335,0 0.411722,0.135518 0.108782,0.135514 0.0122,0.368904 z m -1.063439,0.952372 q 0.110607,-0.08281 0.209031,-0.184451 0.10566,-0.105401 0.244446,-0.289854 0.13312,-0.176921 0.189198,-0.274794 0.0589,-0.101637 0.07448,-0.180687 0.04928,-0.135517 -0.02735,-0.214568 -0.07224,-0.07905 -0.256639,-0.07905 -0.175619,0 -0.353642,0.07905 -0.178023,0.07905 -0.334234,0.210802 -0.09616,0.07529 -0.190199,0.176924 -0.09405,0.101639 -0.229998,0.282323 -0.135955,0.18069 -0.197688,0.286089 -0.0589,0.101637 -0.07448,0.180687 -0.04361,0.127989 0.01545,0.207041 0.06629,0.07529 0.233127,0.07529 0.17562,0 0.359592,-0.07529 0.188363,-0.07529 0.338909,-0.199512 z"
         style="font-size:19.7556px;line-height:1.25;font-family:Barlow;-inkscape-font-specification:Barlow;fill:#ffff00;fill-opacity:1;stroke-width:0.233453"
         id="path893" />
      <path
         d="m 62.913505,18.758722 q 0.0439,0 0.01558,0.03764 l -0.121791,0.161866 q -0.02833,0.03765 -0.07223,0.03765 h -0.860541 q -0.01756,0 -0.0289,0.01506 l -1.76456,2.345173 q -0.02832,0.03764 -0.07223,0.03764 h -0.223917 q -0.04391,0 -0.01558,-0.03764 l 1.764557,-2.345169 q 0.01133,-0.01506 -0.0062,-0.01506 h -0.825416 q -0.0439,0 -0.01557,-0.03764 l 0.12179,-0.161865 q 0.02832,-0.03764 0.07222,-0.03764 z"
         style="font-size:19.7556px;line-height:1.25;font-family:Barlow;-inkscape-font-specification:Barlow;fill:#5555ff;fill-opacity:1;stroke:#5555ff;stroke-width:0.233453;stroke-opacity:1"
         id="path895" />
      <path
         d="m 63.340542,19.47018 q 0.14489,0 0.21344,0.04894 0.0238,0.01506 -0.01047,0.04894 l -0.187082,0.184453 q -0.0415,0.03764 -0.07408,0.02259 -0.05481,-0.02635 -0.151402,-0.02635 l -0.05991,0.0038 q -0.233977,0.0075 -0.488046,0.146806 -0.251245,0.135518 -0.409857,0.34632 l -0.835546,1.110475 q -0.02832,0.03764 -0.07223,0.03764 h -0.223916 q -0.0439,0 -0.01558,-0.03764 l 1.37653,-1.829465 q 0.02832,-0.03764 0.07222,-0.03764 h 0.223918 q 0.04391,0 0.01559,0.03764 l -0.172775,0.229624 q -0.0085,0.0113 -0.0069,0.01506 0.0088,0 0.01884,-0.0075 0.196999,-0.139278 0.394142,-0.214565 0.204366,-0.07905 0.393158,-0.07905 z"
         style="font-size:19.7556px;line-height:1.25;font-family:Barlow;-inkscape-font-specification:Barlow;fill:#5555ff;fill-opacity:1;stroke-width:0.233453"
         id="path897" />
      <path
         d="m 64.497031,19.142684 q -0.105371,0 -0.130302,-0.06023 -0.02493,-0.06023 0.04305,-0.150574 0.07081,-0.0941 0.183539,-0.150572 0.115564,-0.06023 0.220938,-0.06023 0.105373,0 0.130301,0.06023 0.02776,0.05647 -0.04305,0.150572 -0.06798,0.09035 -0.183541,0.150574 -0.115564,0.06023 -0.220937,0.06023 z m -1.813852,2.247301 q -0.04391,0 -0.01559,-0.03764 l 1.376526,-1.829458 q 0.02832,-0.03765 0.07223,-0.03765 h 0.223917 q 0.0439,0 0.01557,0.03765 l -1.376526,1.82946 q -0.02832,0.03764 -0.07222,0.03764 z"
         style="font-size:19.7556px;line-height:1.25;font-family:Barlow;-inkscape-font-specification:Barlow;fill:#5555ff;fill-opacity:1;stroke-width:0.233453"
         id="path899" />
      <path
         d="m 66.517658,19.963308 q -0.07009,0.180687 -0.293849,0.478067 -0.22659,0.301147 -0.408291,0.466776 -0.2603,0.240919 -0.575842,0.380197 -0.30832,0.135517 -0.624438,0.135517 -0.171228,0 -0.273632,-0.05646 -0.09957,-0.06023 -0.11402,-0.169395 -0.0031,-0.0075 -0.01474,-0.0038 -0.0044,0 -0.01007,0.0075 l -0.665605,0.884617 q -0.02832,0.03764 -0.07223,0.03764 h -0.223917 q -0.0439,0 -0.01558,-0.03764 l 1.925999,-2.559731 q 0.02832,-0.03764 0.07222,-0.03764 h 0.223917 q 0.04391,0 0.01559,0.03764 l -0.11896,0.158103 q -0.0057,0.0075 -0.0041,0.0113 0.0088,0 0.02324,-0.0075 0.178728,-0.109165 0.364544,-0.169395 0.190205,-0.06023 0.365825,-0.06023 0.307336,0 0.411725,0.135518 0.10878,0.135514 0.0122,0.368904 z m -1.063436,0.952372 q 0.110606,-0.08281 0.209031,-0.184451 0.10566,-0.105401 0.244446,-0.289854 0.13312,-0.176921 0.189198,-0.274794 0.0589,-0.101637 0.07449,-0.180687 0.04928,-0.135517 -0.02735,-0.214568 -0.07224,-0.07905 -0.256639,-0.07905 -0.175619,0 -0.353644,0.07905 -0.178024,0.07905 -0.334232,0.210802 -0.09616,0.07529 -0.190199,0.176924 -0.09405,0.101639 -0.229998,0.282323 -0.135955,0.18069 -0.197688,0.286089 -0.0589,0.101637 -0.07449,0.180687 -0.04361,0.127989 0.01544,0.207041 0.06629,0.07529 0.23313,0.07529 0.175619,0 0.359592,-0.07529 0.188363,-0.07529 0.338909,-0.199512 z"
         style="font-size:19.7556px;line-height:1.25;font-family:Barlow;-inkscape-font-specification:Barlow;fill:#5555ff;fill-opacity:1;stroke-width:0.233453"
         id="path901" />
      <path
         id="path931"
         style="font-size:19.7556px;line-height:1.25;font-family:Barlow;-inkscape-font-specification:Barlow;fill:url(#linearGradient2212);fill-opacity:1;stroke-width:0.233453"
         d="m 61.3075,14.974395 c -0.78524,0 -1.576398,0.13461 -2.373564,0.40391 -0.789928,0.25968 -1.534156,0.630013 -2.232524,1.110906 -0.194582,0.136176 -0.380079,0.278321 -0.557279,0.426066 l -0.05144,0.07799 c 1.255801,-0.599316 2.532717,-1.025055 3.855101,-1.076441 0.228388,-0.0316 0.45722,-0.04795 0.686689,-0.04795 0.830112,0 1.341974,0.206776 1.535593,0.620344 0.200859,0.403945 0.04438,0.947351 -0.469428,1.630217 l -0.0326,0.04333 c -0.06513,0.08656 -0.04158,0.129778 0.0706,0.129778 l 0.890851,-0.04332 c 0.04487,0 0.09488,-0.01437 0.150247,-0.04323 0.05535,-0.02885 0.101246,-0.0674 0.137439,-0.115501 0.463144,-0.615536 0.703607,-1.158847 0.721674,-1.630121 0.02927,-0.471271 -0.155574,-0.836844 -0.554723,-1.096525 -0.399148,-0.259682 -0.991395,-0.389437 -1.776634,-0.389437 z" />
      <path
         id="path954"
         style="font-size:19.7556px;line-height:1.25;font-family:Barlow;-inkscape-font-specification:Barlow;fill:url(#linearGradient2204);fill-opacity:1;stroke-width:0.233453"
         d="m 61.590357,14.920829 c 0.09506,0.0021 0.187213,0.0061 0.276318,0.01222 -0.08907,-0.0061 -0.181222,-0.01018 -0.276318,-0.01222 z m -0.734956,0.02373 c -0.09852,0.0084 -0.197262,0.01899 -0.295971,0.03161 0.09871,-0.01262 0.197438,-0.02319 0.295971,-0.03161 z m 1.935908,0.158827 c 0.05616,0.01928 0.109604,0.0404 0.161251,0.06272 -0.05166,-0.02233 -0.105071,-0.04343 -0.161251,-0.06272 z m 0.430711,0.205402 c 0.04986,0.03244 0.09645,0.06657 0.139621,0.102307 -0.04319,-0.03577 -0.08973,-0.06985 -0.139621,-0.102307 z m 0.259171,0.214658 c 0.03648,0.03905 0.06967,0.07975 0.09946,0.122101 -0.02981,-0.04239 -0.06296,-0.08302 -0.09946,-0.122101 z m -5.278738,0.13864 c -0.141676,0.06425 -0.281802,0.132398 -0.420257,0.20442 0.138464,-0.07203 0.278574,-0.140171 0.420257,-0.20442 z m 2.569909,0.15174 c 0.103767,0 0.202589,0.0032 0.296403,0.0096 -0.09382,-0.0065 -0.192636,-0.0096 -0.296403,-0.0096 z m 0,0 c -0.05642,0 -0.112673,9.47e-4 -0.169102,0.003 0.05627,-0.0019 0.112706,-0.003 0.169102,-0.003 z m -0.169102,0.003 c -0.0058,1.9e-4 -0.01143,4.73e-4 -0.01737,9.48e-4 0.0058,-1.9e-4 0.01159,-7.09e-4 0.01737,-9.48e-4 z m -0.01737,9.48e-4 c -0.05114,0.0019 -0.102221,0.0046 -0.153315,0.0081 0.05109,-0.0036 0.102165,-0.0061 0.153315,-0.0081 z m -0.153315,0.0081 c -0.0049,4.73e-4 -0.0096,7.09e-4 -0.01457,0.0012 0.0049,-4.73e-4 0.0096,-7.09e-4 0.01457,-0.0012 z m -0.01457,0.0012 c -0.05374,0.0038 -0.107449,0.0086 -0.161121,0.01418 0.05368,-0.0056 0.107393,-0.0103 0.161121,-0.01418 z m -0.161121,0.01418 c -0.05716,0.0059 -0.114277,0.01288 -0.171363,0.02077 0.0571,-0.0079 0.114214,-0.0148 0.171363,-0.02077 z m 0.948695,-0.0054 c 0.08883,0.0097 0.172709,0.02264 0.251606,0.0388 -0.0789,-0.01615 -0.16276,-0.02911 -0.251606,-0.0388 z m 2.486427,0.01191 c 0.0099,0.02366 0.01903,0.0477 0.02723,0.07218 -0.0082,-0.02449 -0.01735,-0.04851 -0.02723,-0.07218 z m -3.606598,0.01428 c -1.322331,0.05141 -2.599211,0.47714 -3.854973,1.076437 l 0.05136,-0.07788 c -0.44852,0.373975 -0.841675,0.784808 -1.178832,1.232903 l -2.985108,3.967331 c -0.477619,0.634775 -0.738405,1.197412 -0.78216,1.687918 -2.06e-4,9.81e-4 -1.03e-4,0.002 -1.38e-4,0.0028 l 0.03425,-0.102603 c 0.528311,0.536464 1.501206,0.676083 2.613753,0.691041 l 8.14e-4,-7.87e-4 c -0.618387,-0.0541 -1.010418,-0.255222 -1.174072,-0.604778 -0.19362,-0.413566 -0.03706,-0.957069 0.469503,-1.630317 l 3.039455,-4.03956 c 0.506565,-0.673246 1.167823,-1.216652 1.983796,-1.630218 0.590372,-0.299223 1.184537,-0.489658 1.782307,-0.572389 z m -6.1009,8.477121 c 0.0531,0.0047 0.107656,0.0084 0.164125,0.01082 -0.0562,-0.0026 -0.111022,-0.0062 -0.164125,-0.01082 z m 0.164125,0.01082 c 0.0057,1.91e-4 0.01115,5.26e-4 0.01676,7.88e-4 -0.0057,-1.91e-4 -0.01115,-5.25e-4 -0.01676,-7.88e-4 z m 0.01676,7.88e-4 c 0.05861,0.0024 0.118471,0.0039 0.18069,0.0039 -0.06226,0 -0.122168,-0.0016 -0.18069,-0.0039 z m 3.478945,-8.410861 c -0.09153,0.04971 -0.182492,0.101232 -0.272594,0.154397 0.09016,-0.0532 0.181006,-0.104656 0.272594,-0.154397 z m 4.311518,0.116386 c 0.05404,0.03231 0.103067,0.06787 0.147159,0.106641 -0.04409,-0.03877 -0.09312,-0.07433 -0.147159,-0.106641 z m 1.821759,0.177438 c 0.003,0.05561 0.0027,0.112817 -9.27e-4,0.171728 0.0037,-0.05889 0.004,-0.116145 9.27e-4,-0.171728 z m -9.27e-4,0.171728 c -0.0034,0.08836 -0.01454,0.179223 -0.03357,0.272654 0.01903,-0.09344 0.03019,-0.184292 0.03357,-0.272654 z m -6.937439,0.02885 c -0.04637,0.03245 -0.09203,0.06527 -0.13741,0.09837 0.04531,-0.03309 0.09109,-0.06595 0.13741,-0.09837 z m -0.137403,0.09836 c -0.01141,0.0083 -0.02265,0.01682 -0.03402,0.02521 0.01136,-0.0084 0.02258,-0.01686 0.03402,-0.02521 z m -0.03402,0.02521 c -0.03542,0.02611 -0.07059,0.05236 -0.105397,0.07887 0.03481,-0.02655 0.06999,-0.05273 0.105397,-0.07887 z m -0.105397,0.07887 c -0.0079,0.006 -0.01575,0.01206 -0.02363,0.01812 0.0079,-0.006 0.01574,-0.0121 0.02363,-0.01812 z m -0.02363,0.01812 c -0.04052,0.03109 -0.08064,0.06249 -0.120327,0.09414 0.03969,-0.03168 0.07983,-0.06301 0.120327,-0.09414 z m 5.802519,-0.143254 c 0.0098,0.02634 0.01814,0.05322 0.02511,0.08065 -0.007,-0.02743 -0.01535,-0.05431 -0.02511,-0.08065 z m 0.04192,0.164538 c 0.0084,0.05703 0.01111,0.116244 0.0083,0.177634 0.0028,-0.06139 6.3e-5,-0.120604 -0.0083,-0.177634 z m -5.96942,0.07651 c -0.04395,0.0351 -0.08738,0.07056 -0.130317,0.106342 0.04293,-0.03577 0.08641,-0.07123 0.130317,-0.106342 z m 5.60057,1.06226 c -0.05302,0.081 -0.111694,0.164157 -0.175921,0.249516 0.06423,-0.08536 0.122875,-0.168517 0.175921,-0.249516 z m -0.244347,0.37191 c 2.15e-4,0.0068 0.0018,0.01291 0.0047,0.01831 -0.003,-0.0054 -0.0045,-0.01156 -0.0047,-0.01831 z m 0.03889,0.04263 c 0.01694,0.0054 0.0395,0.0081 0.06754,0.0081 -0.02805,0 -0.05058,-0.0027 -0.06754,-0.0081 z m -2.872862,3.748243 c -0.01108,0.0054 -0.02174,0.01145 -0.03207,0.01822 0.01041,-0.0068 0.02109,-0.0128 0.03219,-0.01822 -3.7e-5,1.7e-5 -7.8e-5,-1.7e-5 -1.13e-4,0 z m 0.97632,0.01082 c 0.02805,-2e-6 0.05056,0.0027 0.06753,0.0081 -0.01696,-0.0054 -0.03949,-0.0081 -0.06753,-0.0081 z m 0.10173,0.03239 c 0.003,0.0054 0.0045,0.01154 0.0047,0.01831 -2.08e-4,-0.0068 -0.0017,-0.0129 -0.0047,-0.01831 z m -1.214986,0.08291 c -0.06423,0.08536 -0.130823,0.168659 -0.199785,0.249812 0.06898,-0.08115 0.135558,-0.164452 0.199785,-0.249812 z m 0.795795,0.48505 c -0.05587,0.06206 -0.113116,0.123281 -0.171554,0.183738 0.05842,-0.06046 0.115666,-0.121674 0.171554,-0.183738 z m -2.069761,0.732497 c -0.09019,0.06222 -0.182689,0.122282 -0.277606,0.180292 0.09492,-0.05801 0.187417,-0.118077 0.277606,-0.180292 z m -0.421845,0.265761 c -0.09728,0.0559 -0.196875,0.109693 -0.29887,0.161387 0.101994,-0.05169 0.201592,-0.105483 0.29887,-0.161387 z m 1.382943,0.0066 c -0.08371,0.06234 -0.169206,0.123552 -0.256464,0.183639 0.08729,-0.06011 0.172736,-0.121274 0.256464,-0.183639 z m -7.152114,0.265171 c 3.61e-4,0.02261 8.85e-4,0.04514 0.0022,0.06726 -0.0013,-0.02211 -0.0019,-0.04464 -0.0022,-0.06726 z m 0.02788,0.257687 c 0.0037,0.01789 0.0073,0.03586 0.01175,0.05337 -0.0045,-0.01751 -0.008,-0.03549 -0.01175,-0.05337 z m 0.01175,0.05337 c 0.0066,0.02585 0.01396,0.05129 0.02217,0.07632 -0.0082,-0.02503 -0.01559,-0.05045 -0.02217,-0.07632 z m 0.02217,0.07632 c 0.0082,0.02506 0.0172,0.04971 0.02705,0.07395 -0.0098,-0.02421 -0.01884,-0.04892 -0.02705,-0.07395 z m 4.0004,-0.0011 c -0.09156,0.0191 -0.183347,0.03614 -0.275169,0.05021 0.09186,-0.01407 0.183574,-0.03111 0.275169,-0.05021 z m -0.448161,0.07346 c -0.148478,0.01763 -0.29735,0.02903 -0.446518,0.03357 0.149229,-0.0046 0.297998,-0.01593 0.446518,-0.03357 z m 2.35758,0.01663 c -0.09098,0.04732 -0.182826,0.09305 -0.275517,0.137068 0.09272,-0.04403 0.184511,-0.08973 0.275517,-0.137068 z m -0.698618,0.324055 c -0.09526,0.03906 -0.191451,0.0765 -0.288433,0.112254 0.09702,-0.03577 0.193128,-0.07318 0.288433,-0.112254 z m -4.84494,0.119836 c 0.03868,0.03284 0.07959,0.06454 0.123508,0.09472 -0.04392,-0.03018 -0.08483,-0.06189 -0.123508,-0.09472 z m 4.114776,0.141889 c -0.148058,0.04565 -0.29607,0.08676 -0.44396,0.123281 0.147889,-0.03652 0.295902,-0.07763 0.44396,-0.123281 z m -3.560559,0.158236 c 0.06497,0.02232 0.133,0.04259 0.204008,0.06085 -0.07101,-0.01826 -0.139034,-0.03853 -0.204008,-0.06085 z m 2.820912,0.032 c -0.09853,0.02029 -0.197019,0.03852 -0.295469,0.05475 0.09845,-0.01623 0.196941,-0.03446 0.295469,-0.05475 z m -2.394827,0.07759 c 0.154079,0.0284 0.320261,0.04868 0.498472,0.06085 -0.178205,-0.01218 -0.344389,-0.03245 -0.498472,-0.06085 z m 0.634377,0.06843 c 0.0921,0.0041 0.187221,0.0061 0.285376,0.0061 -0.09815,0 -0.193274,-0.002 -0.285376,-0.0061 z" />
      <path
         id="path919"
         style="font-size:19.7556px;line-height:1.25;font-family:Barlow;-inkscape-font-specification:Barlow;fill:url(#linearGradient2220);fill-opacity:1;stroke-width:0.882368"
         d="m 59.218921,21.836133 c -0.112231,0 -0.200783,0.04325 -0.265872,0.129762 l -0.02165,0.02877 c -0.51384,0.682914 -1.178784,1.231112 -1.994752,1.644786 -0.80888,0.403955 -1.628245,0.605934 -2.458321,0.605934 -0.128455,0 -0.248162,-0.0057 -0.361385,-0.01563 l -8.14e-4,7.88e-4 C 53.003418,24.215663 52.030545,24.076 51.502182,23.539615 l -0.03418,0.102513 c -0.02448,0.479602 0.158762,0.853833 0.549997,1.122501 0.399105,0.259714 0.991209,0.389666 1.776435,0.389666 0.785182,0 1.572801,-0.129952 2.362934,-0.389666 0.789911,-0.259712 1.524715,-0.625178 2.204632,-1.096396 0.698342,-0.480936 1.282863,-1.033898 1.753262,-1.659077 0.06509,-0.08651 0.04141,-0.129761 -0.0706,-0.129761 z" />
      <text
         xml:space="preserve"
         style="font-size:4.33098px;line-height:1.25;font-family:Audiowide;-inkscape-font-specification:Audiowide;fill:#ffffff;stroke:#2c5aa0;stroke-width:0.233453"
         x="62.072876"
         y="44.270771"
         id="text2473"
         transform="matrix(1.0799764,0,-0.69670249,0.92594616,0,0)"><tspan
           sodipodi:role="line"
           id="tspan2471"
           x="62.072876"
           y="44.270771"
           style="font-size:4.33098px;fill:#ffffff;stroke:#2c5aa0;stroke-width:0.233453">Travel,...</tspan><tspan
           sodipodi:role="line"
           x="62.072876"
           y="49.684494"
           style="font-size:4.33098px;fill:#ffffff;stroke:#2c5aa0;stroke-width:0.233453"
           id="tspan2475">           a way to turn the page</tspan></text>
    </g>
  </g>
</svg>
