<?xml version="1.0" encoding="UTF-8" standalone="no"?>
<svg
   xmlns:dc="http://purl.org/dc/elements/1.1/"
   xmlns:cc="http://creativecommons.org/ns#"
   xmlns:rdf="http://www.w3.org/1999/02/22-rdf-syntax-ns#"
   xmlns:svg="http://www.w3.org/2000/svg"
   xmlns="http://www.w3.org/2000/svg"
   xmlns:sodipodi="http://sodipodi.sourceforge.net/DTD/sodipodi-0.dtd"
   xmlns:inkscape="http://www.inkscape.org/namespaces/inkscape"
   viewBox="0 0 100 99.999998"
   version="1.1"
   x="0px"
   y="0px"
   id="svg10"
   sodipodi:docname="noun_print_3669846.svg"
   width="100"
   height="100"
   inkscape:version="1.0.1 (1921e68f95, 2020-11-30)">
  <metadata
     id="metadata16">
    <rdf:RDF>
      <cc:Work
         rdf:about="">
        <dc:format>image/svg+xml</dc:format>
        <dc:type
           rdf:resource="http://purl.org/dc/dcmitype/StillImage" />
        <dc:title></dc:title>
      </cc:Work>
    </rdf:RDF>
  </metadata>
  <defs
     id="defs14" />
  <sodipodi:namedview
     pagecolor="#ffffff"
     bordercolor="#666666"
     borderopacity="1"
     objecttolerance="10"
     gridtolerance="10"
     guidetolerance="10"
     inkscape:pageopacity="0"
     inkscape:pageshadow="2"
     inkscape:window-width="1600"
     inkscape:window-height="836"
     id="namedview12"
     showgrid="false"
     inkscape:zoom="2.9342146"
     inkscape:cx="-52.932918"
     inkscape:cy="75.92759"
     inkscape:window-x="0"
     inkscape:window-y="0"
     inkscape:window-maximized="1"
     inkscape:current-layer="svg10" />
  <path
     style="color:#000000;font-style:normal;font-variant:normal;font-weight:normal;font-stretch:normal;font-size:medium;line-height:normal;font-family:sans-serif;font-variant-ligatures:normal;font-variant-position:normal;font-variant-caps:normal;font-variant-numeric:normal;font-variant-alternates:normal;font-feature-settings:normal;text-indent:0;text-align:start;text-decoration:none;text-decoration-line:none;text-decoration-style:solid;text-decoration-color:#000000;letter-spacing:normal;word-spacing:normal;text-transform:none;writing-mode:lr-tb;direction:ltr;text-orientation:mixed;dominant-baseline:auto;baseline-shift:baseline;text-anchor:start;white-space:normal;shape-padding:0;clip-rule:nonzero;display:inline;overflow:visible;visibility:visible;opacity:0.994;isolation:auto;mix-blend-mode:normal;color-interpolation:sRGB;color-interpolation-filters:linearRGB;solid-color:#000000;solid-opacity:1;vector-effect:none;fill:#555fff;fill-opacity:1;fill-rule:evenodd;stroke:none;stroke-width:0.529166;stroke-linecap:butt;stroke-linejoin:round;stroke-miterlimit:4;stroke-dasharray:none;stroke-dashoffset:0;stroke-opacity:1;paint-order:stroke fill markers;color-rendering:auto;image-rendering:auto;shape-rendering:auto;text-rendering:auto;enable-background:accumulate"
     d="m 35.454545,9.9928956 c -5.980745,0 -10.909091,4.9283664 -10.909091,10.9090914 v 3.636363 h -3.636363 c -5.980733,0 -10.9090914,4.928367 -10.9090914,10.909091 v 29.09091 c 0,5.980724 4.9283574,10.909091 10.9090914,10.909091 h 3.629261 v 3.636364 c 0,5.980585 4.942544,10.923298 10.923296,10.923298 h 29.069604 c 5.980752,0 10.930396,-4.942713 10.930396,-10.923298 V 75.447442 H 79.09091 C 85.071643,75.447442 90,70.519075 90,64.538351 V 35.447441 C 90,29.466717 85.071643,24.53835 79.09091,24.53835 h -3.636364 v -3.636363 c 0,-5.980725 -4.928345,-10.9090914 -10.909091,-10.9090914 z m 0,7.2727274 h 29.09091 c 2.077255,0 3.636364,1.559135 3.636364,3.636364 V 24.53835 H 31.818181 v -3.636363 c 0,-2.077229 1.559111,-3.636364 3.636364,-3.636364 z M 20.909091,31.811077 H 79.09091 c 2.077484,0 3.636363,1.558861 3.636363,3.636364 v 29.09091 c 0,2.077501 -1.558879,3.636364 -3.636363,3.636364 h -3.629262 v -3.643466 c 0,-5.980723 -4.949727,-10.894887 -10.930396,-10.894887 H 35.461648 c -5.98067,0 -10.923296,4.914164 -10.923296,10.894887 v 3.643466 h -3.629261 c -2.077484,0 -3.636364,-1.558863 -3.636364,-3.636364 v -29.09091 c 0,-2.077503 1.558879,-3.636364 3.636364,-3.636364 z m 7.272726,7.272729 c -2.008308,0 -3.636363,1.628055 -3.636363,3.636362 0,2.00831 1.628055,3.636364 3.636363,3.636364 2.008309,0 3.636364,-1.628054 3.636364,-3.636364 0,-2.008307 -1.628055,-3.636362 -3.636364,-3.636362 z m 7.279831,21.825283 h 29.069604 c 2.077516,0 3.650567,1.544654 3.650567,3.62216 v 14.552557 c 0,2.077229 -1.573135,3.650567 -3.650567,3.650567 H 35.461648 c -2.077434,0 -3.650569,-1.573338 -3.650569,-3.650567 V 64.531249 c 0,-2.077506 1.573052,-3.62216 3.650569,-3.62216 z"
     id="path2" />
</svg>
