<?xml version="1.0" encoding="UTF-8" standalone="no"?>
<svg
   xmlns:dc="http://purl.org/dc/elements/1.1/"
   xmlns:cc="http://creativecommons.org/ns#"
   xmlns:rdf="http://www.w3.org/1999/02/22-rdf-syntax-ns#"
   xmlns:svg="http://www.w3.org/2000/svg"
   xmlns="http://www.w3.org/2000/svg"
   xmlns:sodipodi="http://sodipodi.sourceforge.net/DTD/sodipodi-0.dtd"
   xmlns:inkscape="http://www.inkscape.org/namespaces/inkscape"
   viewBox="0 0 32 40"
   x="0px"
   y="0px"
   version="1.1"
   id="svg12"
   sodipodi:docname="sign-up.svg"
   inkscape:version="1.0.1 (1921e68f95, 2020-11-30)">
  <metadata
     id="metadata18">
    <rdf:RDF>
      <cc:Work
         rdf:about="">
        <dc:format>image/svg+xml</dc:format>
        <dc:type
           rdf:resource="http://purl.org/dc/dcmitype/StillImage" />
        <dc:title>55- login</dc:title>
      </cc:Work>
    </rdf:RDF>
  </metadata>
  <defs
     id="defs16" />
  <sodipodi:namedview
     pagecolor="#ffffff"
     bordercolor="#666666"
     borderopacity="1"
     objecttolerance="10"
     gridtolerance="10"
     guidetolerance="10"
     inkscape:pageopacity="0"
     inkscape:pageshadow="2"
     inkscape:window-width="1600"
     inkscape:window-height="836"
     id="namedview14"
     showgrid="false"
     inkscape:zoom="13.175"
     inkscape:cx="16"
     inkscape:cy="17.088236"
     inkscape:window-x="0"
     inkscape:window-y="0"
     inkscape:window-maximized="1"
     inkscape:current-layer="svg12" />
  <title
     id="title2">55- login</title>
  <g
     id="g845"
     transform="translate(-2,4)">
    <path
       d="m 8,13 h 6 V 9 a 1,1 0 0 1 1.71,-0.71 l 7,7 a 1,1 0 0 1 0,1.41 l -7,7 A 1,1 0 0 1 14,23 V 19 H 8 a 3,3 0 0 1 0,-6 z m 0,4 h 7 a 1,1 0 0 1 1,1 v 2.59 L 20.59,16 16,11.41 V 14 a 1,1 0 0 1 -1,1 H 8 a 1,1 0 0 0 0,2 z"
       id="path4"
       style="fill:#ffff00" />
    <path
       d="m 31,28 a 3,3 0 0 1 -3,3 H 12 A 3,3 0 0 1 9,28 v -2 a 1,1 0 0 1 2,0 v 2 a 1,1 0 0 0 1,1 h 16 a 1,1 0 0 0 1,-1 V 4 A 1,1 0 0 0 28,3 H 12 A 1,1 0 0 0 11,4 V 6 A 1,1 0 0 1 9,6 V 4 a 3,3 0 0 1 3,-3 h 16 a 3,3 0 0 1 3,3 z"
       id="path6"
       style="fill:#0000ff" />
  </g>
  <text
     x="0"
     y="47"
     fill="#000000"
     font-size="5px"
     font-weight="bold"
     font-family="'Helvetica Neue', Helvetica, Arial-Unicode, Arial, Sans-serif"
     id="text8">Created by Andi Nur Abdillah</text>
  <text
     x="0"
     y="52"
     fill="#000000"
     font-size="5px"
     font-weight="bold"
     font-family="'Helvetica Neue', Helvetica, Arial-Unicode, Arial, Sans-serif"
     id="text10">from the Noun Project</text>
</svg>
