<?xml version="1.0" encoding="UTF-8" standalone="no"?>
<svg
   xmlns:dc="http://purl.org/dc/elements/1.1/"
   xmlns:cc="http://creativecommons.org/ns#"
   xmlns:rdf="http://www.w3.org/1999/02/22-rdf-syntax-ns#"
   xmlns:svg="http://www.w3.org/2000/svg"
   xmlns="http://www.w3.org/2000/svg"
   xmlns:sodipodi="http://sodipodi.sourceforge.net/DTD/sodipodi-0.dtd"
   xmlns:inkscape="http://www.inkscape.org/namespaces/inkscape"
   class="ldi-y21ilk"
   width="64px"
   height="64px"
   viewBox="0 0 100 100"
   preserveAspectRatio="xMidYMid"
   style="background: none;"
   version="1.1"
   id="svg21"
   sodipodi:docname="wrench.svg"
   inkscape:version="1.0.1 (1921e68f95, 2020-11-30)">
  <metadata
     id="metadata27">
    <rdf:RDF>
      <cc:Work
         rdf:about="">
        <dc:format>image/svg+xml</dc:format>
        <dc:type
           rdf:resource="http://purl.org/dc/dcmitype/StillImage" />
      </cc:Work>
    </rdf:RDF>
  </metadata>
  <defs
     id="defs25">
    <style
       type="text/css"
       class="ld ld-wrench"
       style="transform-origin: 50px 50px 0px; animation-duration: 1s; animation-delay: -0.333333s;"
       id="style18">path,ellipse,circle,rect,polygon,polyline,line { stroke-width: 0; }@keyframes ld-wrench {
  20%, 36%, 70%, 86% {
    -webkit-transform: rotate(0deg);
    transform: rotate(0deg);
  }
  0%, 50%, 100% {
    -webkit-transform: rotate(45deg);
    transform: rotate(45deg);
  }
}
@-webkit-keyframes ld-wrench {
  20%, 36%, 70%, 86% {
    -webkit-transform: rotate(0deg);
    transform: rotate(0deg);
  }
  0%, 50%, 100% {
    -webkit-transform: rotate(45deg);
    transform: rotate(45deg);
  }
}
.ld.ld-wrench {
  -webkit-animation: ld-wrench 1s infinite;
  animation: ld-wrench 1s infinite;
}
</style>
    <style
       type="text/css"
       class="ld ld-wrench"
       id="style2">.st0{fill:#333333;} .st1{fill:#F8B26A;} .st2{fill:#F5E6C8;} .st3{fill:#D77D7D;} .st4{fill:none;stroke:#333333;stroke-width:6;stroke-miterlimit:10;} .st5{fill:#E15B64;} .st6{fill:#F47E60;} .st7{fill:#FFFFFF;} .st8{fill:#F8B26A;stroke:#333333;stroke-width:4;stroke-miterlimit:10;} .st9{fill:#666666;} .st10{fill:#E0E0E0;}</style>
  </defs>
  <sodipodi:namedview
     pagecolor="#ffffff"
     bordercolor="#666666"
     borderopacity="1"
     objecttolerance="10"
     gridtolerance="10"
     guidetolerance="10"
     inkscape:pageopacity="0"
     inkscape:pageshadow="2"
     inkscape:window-width="1600"
     inkscape:window-height="836"
     id="namedview23"
     showgrid="false"
     inkscape:zoom="8.234375"
     inkscape:cx="23.957539"
     inkscape:cy="32"
     inkscape:window-x="0"
     inkscape:window-y="0"
     inkscape:window-maximized="1"
     inkscape:current-layer="svg21" />
  <!--?xml version="1.0" encoding="utf-8"?-->
  <!--Generator: Adobe Illustrator 21.0.0, SVG Export Plug-In . SVG Version: 6.00 Build 0)-->
  <path
     class="st0"
     d="m 79.6,44.474 c -0.283,-1.521 -0.68,-3.002 -1.183,-4.433 l 8.695,-5.26 c -1.366,-3.317 -3.166,-6.407 -5.328,-9.206 l -8.901,4.899 c -0.997,-1.161 -2.08,-2.245 -3.241,-3.241 l 4.899,-8.901 C 71.742,16.17 68.652,14.37 65.335,13.004 l -5.26,8.695 c -1.431,-0.504 -2.912,-0.9 -4.433,-1.183 L 55.435,10.362 C 53.694,10.131 51.922,10 50.117,10 48.312,10 46.54,10.131 44.799,10.363 L 44.592,20.517 C 43.071,20.8 41.59,21.197 40.159,21.7 l -5.26,-8.695 c -3.317,1.366 -6.407,3.166 -9.206,5.328 l 4.899,8.901 c -1.161,0.997 -2.245,2.08 -3.241,3.241 L 18.45,25.576 c -2.162,2.799 -3.962,5.889 -5.328,9.206 l 8.695,5.26 c -0.504,1.431 -0.9,2.912 -1.183,4.433 L 10.48,44.682 c -0.231,1.741 -0.363,3.514 -0.363,5.318 0,1.804 0.131,3.577 0.363,5.318 l 10.154,0.207 c 0.283,1.521 0.68,3.002 1.183,4.433 l -8.695,5.26 c 1.366,3.317 3.166,6.407 5.328,9.206 l 8.901,-4.899 c 0.997,1.161 2.08,2.245 3.241,3.241 l -4.899,8.901 c 2.799,2.162 5.889,3.962 9.206,5.328 l 5.26,-8.695 c 1.431,0.504 2.912,0.9 4.433,1.183 l 0.207,10.154 C 46.54,89.869 48.313,90 50.117,90 c 1.804,0 3.577,-0.131 5.318,-0.363 l 0.207,-10.154 c 1.521,-0.283 3.002,-0.68 4.433,-1.183 l 5.26,8.695 c 3.317,-1.366 6.407,-3.166 9.206,-5.328 l -4.899,-8.901 c 1.161,-0.997 2.245,-2.08 3.241,-3.241 l 8.901,4.899 c 2.162,-2.799 3.962,-5.889 5.328,-9.206 l -8.695,-5.26 c 0.504,-1.431 0.9,-2.912 1.183,-4.433 l 10.154,-0.207 c 0.231,-1.741 0.363,-3.514 0.363,-5.318 0,-1.804 -0.131,-3.577 -0.363,-5.318 z M 50,70 C 38.954,70 30,61.046 30,50 30,38.954 38.954,30 50,30 c 11.046,0 20,8.954 20,20 0,11.046 -8.954,20 -20,20 z"
     fill="#989898"
     stroke="#989898"
     style="fill:#000080;stroke:#989898"
     id="path4" />
  <path
     class="st1"
     d="m 60.678,60.884 c 3.567,-3.567 4.981,-8.46 4.268,-13.09 -0.091,-0.589 -0.822,-0.821 -1.243,-0.4 l -9.189,9.188 c -0.609,0.609 -1.497,0.847 -2.329,0.624 L 46.136,55.585 C 45.304,55.362 44.654,54.712 44.431,53.88 L 42.81,47.831 c -0.223,-0.832 0.015,-1.72 0.624,-2.329 l 9.188,-9.188 c 0.423,-0.423 0.188,-1.154 -0.403,-1.245 -5.023,-0.771 -10.353,0.959 -13.965,5.224 -4.063,4.798 -4.622,11.62 -1.764,17.001 L 11.626,78.386 c -2.926,2.733 -3.005,7.346 -0.174,10.177 2.831,2.831 7.445,2.752 10.177,-0.174 l 21.089,-24.86 c 5.767,3.09 13.095,2.22 17.96,-2.645 z M 14.314,85.702 c -1.301,-1.301 -1.301,-3.412 0,-4.713 1.301,-1.301 3.412,-1.301 4.713,0 1.301,1.301 1.301,3.412 0,4.713 -1.301,1.301 -3.411,1.302 -4.713,0 z"
     stroke="#989898"
     fill="rgb(248, 178, 106)"
     style="fill:#0055d4;stroke:#989898"
     id="path8" />
</svg>
