<?xml version="1.0" encoding="UTF-8" standalone="no"?>
<svg
   xmlns:dc="http://purl.org/dc/elements/1.1/"
   xmlns:cc="http://creativecommons.org/ns#"
   xmlns:rdf="http://www.w3.org/1999/02/22-rdf-syntax-ns#"
   xmlns:svg="http://www.w3.org/2000/svg"
   xmlns="http://www.w3.org/2000/svg"
   xmlns:xlink="http://www.w3.org/1999/xlink"
   xmlns:sodipodi="http://sodipodi.sourceforge.net/DTD/sodipodi-0.dtd"
   xmlns:inkscape="http://www.inkscape.org/namespaces/inkscape"
   id="svg8"
   version="1.1"
   viewBox="0 0 39.687499 26.458334"
   height="100"
   width="150"
   sodipodi:docname="captrip-logo.svg"
   inkscape:version="1.0.1 (1921e68f95, 2020-11-30)">
  <defs
     id="defs2">
    <linearGradient
       inkscape:collect="always"
       id="linearGradient2218">
      <stop
         style="stop-color:#5555ff;stop-opacity:1"
         offset="0"
         id="stop2214" />
      <stop
         style="stop-color:#ff5555;stop-opacity:1"
         offset="1"
         id="stop2216" />
    </linearGradient>
    <linearGradient
       inkscape:collect="always"
       id="linearGradient2210">
      <stop
         style="stop-color:#ff5555;stop-opacity:1"
         offset="0"
         id="stop2206" />
      <stop
         style="stop-color:#5555ff;stop-opacity:1"
         offset="1"
         id="stop2208" />
    </linearGradient>
    <linearGradient
       inkscape:collect="always"
       id="linearGradient2202">
      <stop
         style="stop-color:#ffff00;stop-opacity:1"
         offset="0"
         id="stop2198" />
      <stop
         style="stop-color:#ffff00;stop-opacity:1"
         offset="1"
         id="stop2200" />
    </linearGradient>
    <rect
       x="69.206116"
       y="94.603012"
       width="106.73664"
       height="64.124252"
       id="rect885" />
    <rect
       x="169.3912"
       y="167.82335"
       width="119.4263"
       height="76.473885"
       id="rect879" />
    <rect
       x="149.87611"
       y="141.241"
       width="62.681446"
       height="22.226034"
       id="rect839" />
    <linearGradient
       inkscape:collect="always"
       xlink:href="#linearGradient2202"
       id="linearGradient2204"
       x1="86.654686"
       y1="109.16055"
       x2="86.582855"
       y2="143.44373"
       gradientUnits="userSpaceOnUse"
       gradientTransform="matrix(0.4157003,0,0,0.4157003,-28.73085,-38.790685)" />
    <linearGradient
       inkscape:collect="always"
       xlink:href="#linearGradient2210"
       id="linearGradient2212"
       x1="87.278908"
       y1="105.92841"
       x2="110.44649"
       y2="99.44976"
       gradientUnits="userSpaceOnUse"
       gradientTransform="matrix(0.4157003,0,0,0.4157003,-28.73085,-38.350736)" />
    <linearGradient
       inkscape:collect="always"
       xlink:href="#linearGradient2218"
       id="linearGradient2220"
       x1="120.65155"
       y1="137.76109"
       x2="100.81452"
       y2="152.54005"
       gradientUnits="userSpaceOnUse"
       gradientTransform="matrix(0.4157003,0,0,0.4157003,-28.73085,-39.450609)" />
  </defs>
  <sodipodi:namedview
     id="base"
     pagecolor="#ffffff"
     bordercolor="#666666"
     borderopacity="1.0"
     inkscape:pageopacity="0.0"
     inkscape:pageshadow="2"
     inkscape:zoom="2.8284271"
     inkscape:cx="84.63131"
     inkscape:cy="35.966231"
     inkscape:document-units="px"
     inkscape:current-layer="layer1"
     inkscape:document-rotation="0"
     showgrid="false"
     inkscape:showpageshadow="false"
     showborder="true"
     inkscape:pagecheckerboard="true"
     units="px"
     inkscape:snap-global="false"
     inkscape:window-width="1600"
     inkscape:window-height="836"
     inkscape:window-x="0"
     inkscape:window-y="0"
     inkscape:window-maximized="1" />
  <metadata
     id="metadata5">
    <rdf:RDF>
      <cc:Work
         rdf:about="">
        <dc:format>image/svg+xml</dc:format>
        <dc:type
           rdf:resource="http://purl.org/dc/dcmitype/StillImage" />
        <dc:title />
      </cc:Work>
    </rdf:RDF>
  </metadata>
  <g
     inkscape:label="Calque 1"
     inkscape:groupmode="layer"
     id="layer1">
    <text
       xml:space="preserve"
       id="text837"
       style="font-size:11.2889px;line-height:1.25;font-family:Barlow;-inkscape-font-specification:Barlow;white-space:pre;shape-inside:url(#rect839);" />
    <text
       xml:space="preserve"
       id="text877"
       style="font-size:11.2889px;line-height:1.25;font-family:Barlow;-inkscape-font-specification:Barlow;white-space:pre;shape-inside:url(#rect879);" />
    <text
       xml:space="preserve"
       id="text883"
       style="font-size:11.2889px;line-height:1.25;font-family:Barlow;-inkscape-font-specification:Barlow;white-space:pre;shape-inside:url(#rect885);" />
    <g
       id="g878">
      <g
         id="g865">
        <path
           d="m 12.451502,11.847785 q 0.739115,0 1.141521,0.377771 0.402411,0.377768 0.402411,1.001913 v 2.75936 q 0,0.08213 -0.08213,0.08213 h -0.418831 q -0.08212,0 -0.08212,-0.08213 v -0.336708 q 0,-0.01642 -0.01642,-0.02465 -0.0082,-0.0082 -0.02465,0.0082 -0.205311,0.246373 -0.533805,0.377772 -0.328495,0.123184 -0.730902,0.123184 -0.58308,0 -0.977275,-0.295646 -0.394194,-0.295646 -0.394194,-0.903362 0,-0.615931 0.443469,-0.96906 0.451681,-0.361348 1.248283,-0.361348 h 0.952638 q 0.03284,0 0.03284,-0.03284 v -0.31207 q 0,-0.418835 -0.238159,-0.656994 -0.229949,-0.246369 -0.72269,-0.246369 -0.394195,0 -0.640566,0.156033 -0.246372,0.147823 -0.303859,0.418835 -0.02464,0.08212 -0.09855,0.07391 l -0.443469,-0.05749 q -0.09034,-0.01642 -0.07391,-0.0657 0.0657,-0.459894 0.492744,-0.747325 0.427045,-0.287436 1.067611,-0.287436 z m -0.229947,3.785911 q 0.484531,0 0.837663,-0.238159 0.353134,-0.246369 0.353134,-0.656989 v -0.640569 q 0,-0.03284 -0.03284,-0.03284 H 12.51721 q -0.542018,0 -0.870514,0.221735 -0.328495,0.221734 -0.328495,0.615931 0,0.361343 0.246372,0.550229 0.254584,0.180672 0.656991,0.180672 z"
           style="font-size:19.7556px;line-height:1.25;font-family:Barlow;-inkscape-font-specification:Barlow;fill:#ffff00;stroke-width:0.264583;fill-opacity:1"
           id="path891" />
        <path
           d="m 18.444238,12.948247 q 0.123184,0.394192 0.123184,1.042972 0,0.656993 -0.10676,1.018336 -0.147823,0.525595 -0.542019,0.829451 -0.385982,0.295646 -0.977274,0.295646 -0.320281,0 -0.591292,-0.123184 -0.271008,-0.131399 -0.45168,-0.369558 -0.01642,-0.01642 -0.03284,-0.0082 -0.0082,0 -0.0082,0.01642 v 1.929913 q 0,0.08213 -0.08213,0.08213 H 15.35637 q -0.08212,0 -0.08212,-0.08213 v -5.584426 q 0,-0.08212 0.08212,-0.08212 h 0.418831 q 0.08213,0 0.08213,0.08212 v 0.344923 q 0,0.01642 0.0082,0.02465 0.01642,0 0.03284,-0.01642 0.180672,-0.238159 0.44347,-0.369558 0.271007,-0.131398 0.599502,-0.131398 0.574868,0 0.960849,0.295646 0.394197,0.295646 0.54202,0.804816 z m -0.64878,2.077733 q 0.09034,-0.180672 0.131399,-0.402406 0.04927,-0.229949 0.04927,-0.632355 0,-0.385982 -0.03284,-0.599503 -0.03284,-0.221734 -0.114975,-0.394196 -0.09855,-0.295646 -0.353133,-0.468107 -0.246369,-0.172458 -0.591292,-0.172458 -0.328495,0 -0.550229,0.172458 -0.221735,0.172461 -0.328495,0.459893 -0.07391,0.164252 -0.10676,0.385986 -0.03284,0.221735 -0.03284,0.615927 0,0.394196 0.03284,0.62414 0.03284,0.221735 0.114974,0.394196 0.09855,0.279222 0.320281,0.451684 0.229948,0.164247 0.542019,0.164247 0.328494,0 0.566653,-0.164247 0.246373,-0.164248 0.353134,-0.435259 z"
           style="font-size:19.7556px;line-height:1.25;font-family:Barlow;-inkscape-font-specification:Barlow;fill:#ffff00;stroke-width:0.264583;fill-opacity:1"
           id="path893" />
        <path
           d="m 22.807477,10.320281 q 0.08212,0 0.08212,0.08212 v 0.353133 q 0,0.08213 -0.08212,0.08213 h -1.609629 q -0.03284,0 -0.03284,0.03284 v 5.116319 q 0,0.08213 -0.08212,0.08213 h -0.418831 q -0.08213,0 -0.08213,-0.08213 v -5.116319 q 0,-0.03284 -0.03284,-0.03284 h -1.543932 q -0.08212,0 -0.08212,-0.08213 v -0.353133 q 0,-0.08212 0.08212,-0.08212 z"
           style="font-size:19.7556px;line-height:1.25;font-family:Barlow;-inkscape-font-specification:Barlow;fill:#5555ff;stroke-width:0.264583;stroke:#5555ff;fill-opacity:1;stroke-opacity:1"
           id="path895" />
        <path
           d="m 24.607545,11.872423 q 0.271011,0 0.468107,0.10676 0.0657,0.03284 0.04927,0.106761 l -0.09033,0.40241 q -0.02465,0.08212 -0.106761,0.04927 -0.139613,-0.05749 -0.320284,-0.05749 l -0.10676,0.0082 q -0.427045,0.01642 -0.706267,0.32028 -0.279222,0.295646 -0.279222,0.755539 v 2.422656 q 0,0.08213 -0.08212,0.08213 h -0.418835 q -0.08212,0 -0.08212,-0.08213 v -3.991222 q 0,-0.08212 0.08212,-0.08212 h 0.418835 q 0.08212,0 0.08212,0.08212 v 0.500957 q 0,0.02465 0.0082,0.03284 0.01642,0 0.02465,-0.01642 0.172462,-0.303856 0.435259,-0.468104 0.271008,-0.172461 0.624141,-0.172461 z"
           style="font-size:19.7556px;line-height:1.25;font-family:Barlow;-inkscape-font-specification:Barlow;fill:#5555ff;stroke-width:0.264583;fill-opacity:1"
           id="path897" />
        <path
           d="m 26.309821,11.157947 q -0.197096,0 -0.328495,-0.131399 -0.131398,-0.131399 -0.131398,-0.328499 0,-0.205306 0.131398,-0.328495 0.131399,-0.131398 0.328495,-0.131398 0.197096,0 0.328495,0.131398 0.131398,0.123189 0.131398,0.328495 0,0.1971 -0.131398,0.328499 -0.131399,0.131399 -0.328495,0.131399 z m -0.229945,4.902794 q -0.08213,0 -0.08213,-0.08212 V 11.9874 q 0,-0.08213 0.08213,-0.08213 h 0.418831 q 0.08212,0 0.08212,0.08213 v 3.991221 q 0,0.08212 -0.08212,0.08212 z"
           style="font-size:19.7556px;line-height:1.25;font-family:Barlow;-inkscape-font-specification:Barlow;fill:#5555ff;stroke-width:0.264583;fill-opacity:1"
           id="path899" />
        <path
           d="m 31.244312,12.948247 q 0.123185,0.394192 0.123185,1.042972 0,0.656993 -0.10676,1.018336 -0.147823,0.525595 -0.542019,0.829451 -0.385982,0.295646 -0.977274,0.295646 -0.320281,0 -0.591293,-0.123184 -0.271007,-0.131399 -0.451679,-0.369558 -0.01642,-0.01642 -0.03284,-0.0082 -0.0082,0 -0.0082,0.01642 v 1.929913 q 0,0.08213 -0.08213,0.08213 h -0.41883 q -0.08212,0 -0.08212,-0.08213 v -5.584426 q 0,-0.08212 0.08212,-0.08212 h 0.41883 q 0.08213,0 0.08213,0.08212 v 0.344923 q 0,0.01642 0.0082,0.02465 0.01642,0 0.03284,-0.01642 0.180672,-0.238159 0.443469,-0.369558 0.271008,-0.131398 0.599503,-0.131398 0.574867,0 0.960849,0.295646 0.394196,0.295646 0.542019,0.804816 z m -0.648779,2.077733 q 0.09034,-0.180672 0.131399,-0.402406 0.04927,-0.229949 0.04927,-0.632355 0,-0.385982 -0.03284,-0.599503 -0.03284,-0.221734 -0.114974,-0.394196 -0.09855,-0.295646 -0.353133,-0.468107 -0.246369,-0.172458 -0.591292,-0.172458 -0.328495,0 -0.55023,0.172458 -0.221734,0.172461 -0.328494,0.459893 -0.07391,0.164252 -0.10676,0.385986 -0.03284,0.221735 -0.03284,0.615927 0,0.394196 0.03284,0.62414 0.03284,0.221735 0.114974,0.394196 0.09855,0.279222 0.32028,0.451684 0.229949,0.164247 0.54202,0.164247 0.328494,0 0.566653,-0.164247 0.246373,-0.164248 0.353133,-0.435259 z"
           style="font-size:19.7556px;line-height:1.25;font-family:Barlow;-inkscape-font-specification:Barlow;fill:#5555ff;stroke-width:0.264583;fill-opacity:1"
           id="path901" />
      </g>
      <g
         id="g874">
        <path
           id="path931"
           style="font-size:19.7556px;line-height:1.25;font-family:Barlow;-inkscape-font-specification:Barlow;fill:url(#linearGradient2212);fill-opacity:1;stroke-width:0.264583"
           d="m 14.47743,2.0642519 c -1.468781,9e-7 -2.759178,0.2936707 -3.871254,0.8811862 C 9.4941004,3.5119669 8.6232382,4.3198971 7.9937607,5.369029 7.82145,5.6661175 7.6745353,5.9762258 7.5510187,6.2985515 l 0.013535,0.1701378 C 9.0700366,5.1611996 10.859307,4.2323963 13.26048,4.1202861 c 0.382718,-0.068944 0.787731,-0.1046193 1.21695,-0.1046193 1.552711,0 2.801155,0.4511096 3.745372,1.3533622 0.944214,0.8812639 1.4163,2.0667788 1.4163,3.5565447 v 0.094522 c 0,0.1888444 0.104885,0.2831294 0.31471,0.2831294 l 1.605343,-0.094518 c 0.08393,0 0.157238,-0.031344 0.220192,-0.09431 0.06295,-0.062929 0.09452,-0.1470416 0.09452,-0.2519809 0,-1.3428783 -0.314868,-2.5281853 -0.944342,-3.5563286 C 20.321025,4.2779363 19.460762,3.4803903 18.348685,2.9138615 17.236612,2.3473318 15.946207,2.0642519 14.47743,2.0642519 Z" />
        <path
           id="path954"
           style="font-size:19.7556px;line-height:1.25;font-family:Barlow;-inkscape-font-specification:Barlow;fill:url(#linearGradient2204);fill-opacity:1;stroke-width:0.264583"
           d="m 14.931125,1.9473907 c 0.180813,0.00442 0.358808,0.013365 0.534042,0.026638 -0.175168,-0.013269 -0.353304,-0.022211 -0.534042,-0.026638 z m -1.341327,0.051771 c -0.172454,0.018361 -0.342246,0.041416 -0.509121,0.068958 0.166875,-0.027536 0.336671,-0.050601 0.509121,-0.068958 z m 3.844616,0.3465041 c 0.13218,0.042077 0.261879,0.08815 0.389894,0.1368398 -0.128065,-0.048706 -0.257659,-0.094754 -0.389894,-0.1368398 z m 1.094718,0.4481124 c 0.138919,0.070773 0.274088,0.1452249 0.40515,0.2231978 -0.131141,-0.078035 -0.26614,-0.1523791 -0.40515,-0.2231978 z m 0.786883,0.4683072 c 0.123189,0.085185 0.242557,0.1739872 0.357889,0.2663766 C 19.558497,3.4359935 19.439287,3.3473371 19.316015,3.2620854 Z M 9.637342,3.5645488 C 9.4627599,3.7047063 9.2965766,3.8533899 9.1389614,4.0105163 9.2965845,3.8533816 9.4627524,3.7047147 9.637342,3.5645488 Z m 5.020535,0.3310388 c 0.194091,0 0.383401,0.00694 0.56798,0.021034 -0.184579,-0.014092 -0.373889,-0.021034 -0.56798,-0.021034 z m 0,0 c -0.105521,0 -0.209421,0.00208 -0.312133,0.00644 0.102595,-0.00428 0.206645,-0.00644 0.312133,-0.00644 z m -0.312133,0.00644 c -0.01047,4.157e-4 -0.0207,0.00125 -0.03114,0.00208 0.01048,-4.157e-4 0.02066,-0.00166 0.03114,-0.00208 z m -0.03114,0.00208 c -0.09297,0.00416 -0.184737,0.010018 -0.275397,0.017626 0.09056,-0.00773 0.182497,-0.013344 0.275397,-0.017626 z m -0.275397,0.017626 c -0.0086,8.314e-4 -0.017,0.00166 -0.02557,0.00249 0.0086,-8.314e-4 0.01696,-0.00166 0.02557,-0.00249 z m -0.02557,0.00249 c -0.09512,0.00836 -0.188849,0.01879 -0.281413,0.030928 0.0925,-0.012263 0.186383,-0.022448 0.281413,-0.030928 z m -0.281413,0.030928 c -0.09858,0.012928 -0.19562,0.028101 -0.291294,0.045324 0.09568,-0.017252 0.192798,-0.0323 0.291294,-0.045324 z m 1.766889,-0.011806 c 0.179823,0.021159 0.354912,0.049398 0.525233,0.084641 -0.170321,-0.035251 -0.345406,-0.063494 -0.525233,-0.084641 z m 4.667586,0.025981 c 0.05176,0.051609 0.102724,0.1040581 0.152525,0.1574632 C 20.269394,4.0733518 20.2185,4.0209649 20.166699,3.9693266 Z m -6.725985,0.031136 C 11.03966,4.1126247 9.2504505,5.0414239 7.7450127,6.348872 L 7.7314775,6.1789504 C 7.4188584,6.9948287 7.2616688,7.8911201 7.2616688,8.8686976 v 8.6552794 c 0,1.384851 0.3040565,2.612319 0.9125507,3.682427 0.00125,0.0021 0.00262,0.0042 0.00387,0.006 l -0.080342,-0.223843 c 1.7432097,1.170371 3.7594925,1.474968 5.8615495,1.5076 l 4.15e-4,-0.0017 C 12.726929,22.376492 11.710573,21.937708 10.912501,21.175106 9.968286,20.272853 9.4961984,19.087126 9.4961984,17.618345 V 8.8054904 c 0,-1.4687773 0.4720876,-2.6542922 1.4163026,-3.5565447 0.683157,-0.652795 1.526514,-1.0682542 2.528201,-1.248743 z M 13.959729,22.49446 c 0.105879,0.01014 0.213138,0.01825 0.322226,0.02361 -0.108801,-0.0057 -0.216405,-0.01351 -0.322226,-0.02361 z m 0.322226,0.02361 c 0.01085,4.16e-4 0.02158,0.0012 0.03242,0.0017 -0.01089,-4.15e-4 -0.02158,-0.0012 -0.03242,-0.0017 z m 0.03242,0.0017 c 0.112962,0.0051 0.227118,0.0086 0.343497,0.0086 -0.11645,0 -0.230697,-0.0033 -0.343497,-0.0086 z M 8.9842918,4.1703406 C 8.8830484,4.2787926 8.7854191,4.3911938 8.6917078,4.5071784 8.7854744,4.3911148 8.8829848,4.2788591 8.9842918,4.1703406 Z m 8.2284292,0.2539139 c 0.146547,0.07049 0.288301,0.1480641 0.425341,0.2326508 -0.137044,-0.084587 -0.278794,-0.1621605 -0.425341,-0.2326508 z m 3.657294,0.3871042 c 0.08393,0.1213139 0.16389,0.2461279 0.239955,0.3746458 -0.07603,-0.128468 -0.156062,-0.2533818 -0.239955,-0.3746458 z m 0.239955,0.3746458 c 0.118025,0.1927768 0.225035,0.3910035 0.320937,0.5948338 -0.0959,-0.2038428 -0.202912,-0.402057 -0.320937,-0.5948338 z M 8.1742083,5.2489457 c -0.041055,0.07079 -0.080293,0.1423856 -0.1185794,0.2146052 0.038165,-0.072186 0.077562,-0.1438822 0.1185794,-0.2146052 z M 8.0556289,5.4635509 c -0.00963,0.018208 -0.01869,0.036706 -0.028143,0.054993 0.00947,-0.018291 0.01849,-0.036789 0.028143,-0.054993 z m -0.028143,0.054993 c -0.029502,0.056968 -0.058347,0.114222 -0.086142,0.1720709 0.027719,-0.057924 0.056698,-0.1150368 0.086142,-0.1720709 z m -0.086142,0.1720709 c -0.00629,0.013136 -0.012488,0.026314 -0.01869,0.039533 0.00622,-0.013178 0.012384,-0.026397 0.01869,-0.039533 z m -0.01869,0.039533 c -0.032025,0.06783 -0.062892,0.1363372 -0.092586,0.2053684 0.029631,-0.06911 0.060651,-0.1374555 0.092586,-0.2053684 z M 18.574672,5.4178031 c 0.05532,0.057454 0.108834,0.1161051 0.160473,0.1759369 -0.05164,-0.059832 -0.105148,-0.1184829 -0.160473,-0.1759369 z m 0.309983,0.3589614 c 0.0959,0.1244232 0.184376,0.2536063 0.265517,0.3875366 C 19.069031,6.0303708 18.980553,5.9011877 18.884655,5.7767645 Z M 7.8266309,5.9436806 c -0.03282,0.076584 -0.064135,0.153938 -0.094091,0.2320024 0.029943,-0.07804 0.061373,-0.1554096 0.094091,-0.2320024 z M 19.797425,8.2611474 c 0.01476,0.1767142 0.02211,0.35813 0.02211,0.5443513 0,-0.1862213 -0.0074,-0.3676371 -0.02211,-0.5443513 z m 0.06638,0.8113722 c 0.0099,0.014757 0.02145,0.028143 0.03459,0.039949 -0.01314,-0.011806 -0.02473,-0.025191 -0.03459,-0.039949 z m 0.132758,0.093017 c 0.03933,0.011806 0.08524,0.017626 0.137697,0.017626 -0.05245,0 -0.09836,-0.00582 -0.137697,-0.017626 z m -0.09839,8.1773034 c -0.01309,0.01181 -0.02453,0.02498 -0.03438,0.03974 0.0099,-0.01476 0.02145,-0.02793 0.03459,-0.03974 -4.6e-5,3.7e-5 -1.74e-4,-3.8e-5 -2.16e-4,0 z m 1.841428,0.02361 c 0.05246,-4e-6 0.09836,0.0058 0.137701,0.01763 -0.03933,-0.01181 -0.08524,-0.01763 -0.137701,-0.01763 z m 0.235872,0.07067 c 0.01309,0.01181 0.02474,0.02519 0.03459,0.03995 -0.0099,-0.0148 -0.02141,-0.02814 -0.03459,-0.03995 z M 19.819549,17.618 c 0,0.186225 -0.0074,0.367953 -0.02211,0.545 0.01476,-0.177043 0.02211,-0.358775 0.02211,-0.545 z m 2.171177,1.058203 c -0.01717,0.135401 -0.03808,0.268953 -0.0623,0.400851 0.02419,-0.131893 0.0451,-0.26545 0.0623,-0.400851 z m -2.840554,1.598039 c -0.08114,0.135734 -0.169619,0.266775 -0.265517,0.393331 0.0959,-0.126547 0.184376,-0.257601 0.265517,-0.393331 z m -0.415027,0.579794 c -0.103277,0.121962 -0.21387,0.23931 -0.331895,0.352089 0.118025,-0.112779 0.228618,-0.230127 0.331895,-0.352089 z m 2.596085,0.01438 c -0.06883,0.136 -0.14261,0.269548 -0.22126,0.400635 0.07868,-0.131141 0.152412,-0.264576 0.22126,-0.400635 z M 8.3265146,21.446924 c 0.032483,0.04933 0.065191,0.09849 0.098817,0.146721 -0.033634,-0.04824 -0.06633,-0.09738 -0.098817,-0.146721 z m 0.4148153,0.562181 c 0.032121,0.03903 0.064117,0.07824 0.097099,0.116433 -0.032986,-0.0382 -0.064975,-0.07741 -0.097099,-0.116433 z m 0.097099,0.116433 c 0.048708,0.0564 0.098284,0.111878 0.1488689,0.166484 -0.050589,-0.05461 -0.1001588,-0.110073 -0.1488689,-0.166484 z m 0.1488689,0.166484 c 0.050655,0.05468 0.102133,0.108452 0.1546696,0.161329 -0.052466,-0.05282 -0.1040809,-0.106714 -0.1546696,-0.161329 z m 7.4810742,-0.0025 c -0.144381,0.04167 -0.292083,0.07885 -0.44403,0.109558 0.152005,-0.03072 0.299595,-0.06786 0.44403,-0.109558 z m -0.734895,0.160256 c -0.252917,0.03845 -0.515327,0.06334 -0.787956,0.07325 0.272695,-0.0099 0.534981,-0.03475 0.787956,-0.07325 z m 4.433219,0.03629 c -0.103563,0.103235 -0.211018,0.202999 -0.322442,0.29903 0.11147,-0.09606 0.218841,-0.195758 0.322442,-0.29903 z m -0.850681,0.706969 c -0.123222,0.08521 -0.250434,0.166895 -0.381521,0.244897 0.131141,-0.07803 0.258249,-0.159653 0.381521,-0.244897 z m -8.893725,0.261438 c 0.118559,0.07164 0.239711,0.140814 0.364333,0.206653 -0.124613,-0.06583 -0.24578,-0.135024 -0.364333,-0.206653 z m 7.896319,0.309551 c -0.212693,0.09958 -0.431684,0.189285 -0.656915,0.268954 0.225231,-0.07967 0.444222,-0.169369 0.656915,-0.268954 z m -6.437268,0.345214 c 0.152941,0.04869 0.308717,0.09293 0.467232,0.132759 -0.158518,-0.03983 -0.314289,-0.08407 -0.467232,-0.132759 z m 5.321499,0.06982 c -0.15573,0.04426 -0.314311,0.08403 -0.475611,0.119439 0.161304,-0.03542 0.319877,-0.07518 0.475611,-0.119439 z m -4.370282,0.169278 c 0.328179,0.06197 0.667556,0.106199 1.018029,0.132758 -0.350473,-0.02656 -0.689846,-0.07079 -1.018029,-0.132758 z m 1.282901,0.149298 c 0.178024,0.0089 0.35882,0.0133 0.542418,0.0133 -0.183598,0 -0.364394,-0.0044 -0.542418,-0.0133 z" />
        <path
           id="path919"
           style="font-size:19.7556px;line-height:1.25;font-family:Barlow;-inkscape-font-specification:Barlow;fill:url(#linearGradient2220);fill-opacity:1;stroke-width:1"
           d="m 20.227945,17.034074 c -0.209928,0 -0.314685,0.09436 -0.314685,0.283092 v 0.06277 c 0,1.48987 -0.472235,2.685839 -1.416291,3.588325 -0.944471,0.881284 -2.192819,1.321927 -3.74546,1.321927 -0.240274,0 -0.472235,-0.01247 -0.69796,-0.03409 l -4.16e-4,0.0017 C 11.950896,22.225339 9.9345835,21.920631 8.1913858,20.750435 l 0.080355,0.223647 c 0.629204,1.046317 1.4986412,1.862753 2.6085612,2.44889 1.11204,0.5666 2.402455,0.850107 3.871207,0.850107 1.46867,0 2.759003,-0.283507 3.871417,-0.850107 1.111999,-0.566599 1.972083,-1.363913 2.580668,-2.39194 0.62937,-1.049227 0.944471,-2.255589 0.944471,-3.619502 0,-0.188728 -0.105172,-0.283092 -0.314685,-0.283092 z" />
      </g>
    </g>
  </g>
</svg>
